<svg xmlns="http://www.w3.org/2000/svg" viewBox="0 0 16 16" width="1em" height="1em" focusable="false"><path fill-rule="evenodd" clip-rule="evenodd" d="M8 2a6 6 0 1 1 0 12A6 6 0 0 1 8 2Zm.257 7.308a1.279 1.279 0 0 1-.054-.585c.03-.168.091-.314.184-.437.093-.122.23-.268.41-.436.18-.168.32-.309.422-.423.103-.114.193-.26.27-.436.079-.177.117-.383.117-.617 0-.234-.055-.459-.166-.675a1.684 1.684 0 0 0-.526-.585c-.24-.174-.556-.312-.946-.414-.39-.102-.854-.153-1.394-.153V5.6c.636 0 1.09.081 1.363.243.273.162.41.378.41.648a.688.688 0 0 1-.113.387 1.814 1.814 0 0 1-.288.333c-.117.108-.253.237-.41.387-.155.15-.277.301-.364.455a1.264 1.264 0 0 0-.153.54c-.015.207.022.445.112.715h1.126Zm-.05 1.593a.687.687 0 0 1-.5.198.687.687 0 0 1-.702-.684.687.687 0 0 1 .702-.684.687.687 0 0 1 .702.684.653.653 0 0 1-.202.486Z"/></svg>