<svg xmlns="http://www.w3.org/2000/svg" viewBox="0 0 32 32" width="1em" height="1em" focusable="false"><path fill-rule="evenodd" clip-rule="evenodd" d="M16 4c6.627 0 12 5.373 12 12s-5.373 12-12 12S4 22.627 4 16 9.373 4 16 4Zm.275 16.304c-.19-.63-.246-1.188-.165-1.672.08-.484.231-.895.451-1.232.22-.337.55-.722.99-1.155.44-.433.792-.8 1.056-1.1.264-.3.491-.664.682-1.089.19-.425.286-.895.286-1.408 0-.587-.128-1.133-.385-1.639s-.653-.953-1.188-1.342c-.535-.389-1.24-.7-2.112-.935-.873-.235-1.903-.352-3.091-.352v1.826c.763 0 1.496.07 2.2.209.704.14 1.28.407 1.727.803.447.396.671.924.671 1.584 0 .396-.095.763-.286 1.1-.19.337-.44.66-.748.968-.308.308-.645.656-1.012 1.045a5.92 5.92 0 0 0-.88 1.177c-.22.396-.352.858-.396 1.386-.044.528.044 1.137.264 1.826h1.936Zm-.011 3.52a1.32 1.32 0 0 1-.957.374c-.367 0-.678-.125-.935-.374a1.237 1.237 0 0 1-.385-.924c0-.367.128-.675.385-.924.257-.25.568-.374.935-.374.381 0 .7.125.957.374.257.25.385.557.385.924s-.128.675-.385.924Z"/></svg>