<svg xmlns="http://www.w3.org/2000/svg" viewBox="0 0 24 24" width="1em" height="1em" focusable="false"><path d="M12.2 15.312c-.139-.459-.179-.864-.12-1.216s.168-.65.328-.896a5.3 5.3 0 0 1 .72-.84c.32-.315.576-.581.768-.8.192-.219.357-.483.496-.792.139-.31.208-.65.208-1.024 0-.427-.093-.824-.28-1.192-.187-.368-.475-.693-.864-.976-.39-.283-.901-.51-1.536-.68-.635-.17-1.384-.256-2.248-.256v1.328c.555 0 1.088.05 1.6.152.512.101.93.296 1.256.584.325.288.488.672.488 1.152 0 .288-.07.555-.208.8-.139.245-.32.48-.544.704-.224.224-.47.477-.736.76-.267.283-.48.568-.64.856-.16.288-.256.624-.288 1.008-.032.384.032.827.192 1.328H12.2ZM12.192 17.872a.96.96 0 0 1-.696.272.94.94 0 0 1-.68-.272.9.9 0 0 1-.28-.672.9.9 0 0 1 .28-.672.94.94 0 0 1 .68-.272c.277 0 .51.09.696.272a.9.9 0 0 1 .28.672.9.9 0 0 1-.28.672Z"/><path fill-rule="evenodd" clip-rule="evenodd" d="M21 12a9 9 0 1 0-18 0 9 9 0 0 0 18 0ZM4 12a8 8 0 1 1 16 0 8 8 0 0 1-16 0Z"/></svg>