<svg xmlns="http://www.w3.org/2000/svg" viewBox="0 0 48 48" width="1em" height="1em" focusable="false"><path d="M24.016 30.072c-.299-1.024-.395-1.915-.288-2.672.107-.757.325-1.403.656-1.936.33-.533.72-1.03 1.168-1.488.448-.459.965-1.003 1.552-1.632.587-.63 1.024-1.264 1.312-1.904.288-.64.432-1.344.432-2.112 0-.725-.155-1.435-.464-2.128-.31-.693-.848-1.333-1.616-1.92-.768-.587-1.712-1.035-2.832-1.344-1.12-.31-2.555-.475-4.304-.496v1.856c1.515.021 2.688.144 3.52.368.832.224 1.52.539 2.064.944.544.405.912.859 1.104 1.36a4.22 4.22 0 0 1 .288 1.52c0 .64-.139 1.237-.416 1.792a6.852 6.852 0 0 1-1.152 1.616c-.49.523-.997 1.061-1.52 1.616a8.123 8.123 0 0 0-1.264 1.728c-.32.597-.517 1.296-.592 2.096-.075.8.048 1.712.368 2.736h1.984ZM24.112 34.808a1.481 1.481 0 0 1-1.088.448c-.427 0-.784-.15-1.072-.448a1.51 1.51 0 0 1-.432-1.088c0-.427.15-.784.448-1.072.299-.288.65-.432 1.056-.432.427 0 .79.144 1.088.432.299.288.448.645.448 1.072 0 .427-.15.79-.448 1.088Z"/><path fill-rule="evenodd" clip-rule="evenodd" d="M41 24c0-9.389-7.611-17-17-17S7 14.611 7 24s7.611 17 17 17 17-7.611 17-17ZM8 24c0-8.837 7.163-16 16-16s16 7.163 16 16-7.163 16-16 16S8 32.837 8 24Z"/></svg>