<svg xmlns="http://www.w3.org/2000/svg" viewBox="0 0 16 16" width="1em" height="1em" focusable="false"><path fill-rule="evenodd" clip-rule="evenodd" d="M0 15V0h16v16H0v-1Zm14.93 0-1-1H13v1h1.93ZM3 15v-1h-.93l-1 1H3Zm-2-.07 1-1V13H1v1.93ZM1 3h1v-.93l-1-1V3Zm.07-2 1 1H3V1H1.07ZM13 1v1h.93l1-1H13Zm2 .07-1 1V3h1V1.07ZM15 13h-1v.93l1 1V13Zm-5.814 1.9H12.9V14h-1.292c-.731.44-1.55.751-2.422.9Zm2.224-.9c-1.006.573-2.17.9-3.41.9a6.868 6.868 0 0 1-3.41-.9h6.82Zm.359-.1H12.9V13h-.001c-.344.337-.723.64-1.13.9Zm.986-.9a6.93 6.93 0 0 1-1.175.9H4.42a6.93 6.93 0 0 1-1.175-.9h9.51Zm.245-.101v.001h.9v-1.131c-.26.407-.563.786-.9 1.13Zm.9-1.32a6.93 6.93 0 0 1-.9 1.176v-9.51c.34.357.642.751.9 1.175v7.16Zm.1-.17c.573-1.005.9-2.169.9-3.409 0-1.24-.327-2.404-.9-3.41v6.82Zm0 .199c.44-.731.751-1.55.9-2.422V12.9H14v-1.292Zm0-7.216c.44.731.751 1.55.9 2.422V3.1H14v1.292Zm-.1-.16V3.1H13v.001c.337.344.64.723.9 1.13ZM12.899 3h.001v-.9h-1.131c.407.26.786.563 1.13.9Zm-1.291-1H12.9v-.9H9.186c.873.149 1.69.46 2.422.9ZM8 1.1c1.24 0 2.404.327 3.41.9H4.59A6.868 6.868 0 0 1 8 1.1Zm-1.186 0H3.1V2h1.292a6.955 6.955 0 0 1 2.422-.9Zm-2.583 1H3.1V3h.001c.344-.337.723-.64 1.13-.9ZM3 3.101V3.1h-.9v1.131c.26-.407.563-.786.9-1.13Zm-.9 1.32c.258-.425.56-.819.9-1.176v9.51a6.927 6.927 0 0 1-.9-1.175V4.42ZM2 4.391V3.1h-.9v3.714c.149-.873.46-1.69.9-2.422ZM1.1 8c0-1.24.327-2.404.9-3.41v6.82A6.869 6.869 0 0 1 1.1 8Zm0 1.186V12.9H2v-1.292a6.955 6.955 0 0 1-.9-2.422Zm1 2.583V12.9H3v-.001a7.035 7.035 0 0 1-.9-1.13ZM3.101 13H3.1v.9h1.131a7.032 7.032 0 0 1-1.13-.9Zm1.291 1H3.1v.9h3.714a6.956 6.956 0 0 1-2.422-.9ZM3.245 3c.357-.34.751-.642 1.175-.9h7.16c.424.258.818.56 1.175.9h-9.51ZM13 2.1h.83l-.83.83V2.1Zm.9.07-.83.83h.83v-.83ZM8 7.93 5.985 5.913A2.89 2.89 0 0 1 8 5.1c.783 0 1.493.31 2.015.814L8 7.93ZM3.1 3.17l2.744 2.744A2.99 2.99 0 0 0 5 8c0 .81.321 1.546.844 2.086L3.1 12.829V3.171Zm.07-.07 2.744 2.744A2.99 2.99 0 0 1 8 5c.81 0 1.546.321 2.086.844L12.829 3.1H3.171Zm9.73.07-2.744 2.744A2.99 2.99 0 0 1 11 8a2.99 2.99 0 0 1-.844 2.086l2.744 2.743V3.171ZM8.07 8l2.016-2.015A2.89 2.89 0 0 1 10.9 8a2.89 2.89 0 0 1-.814 2.015L8.07 8ZM8 8.07l2.015 2.016A2.89 2.89 0 0 1 8 10.9a2.89 2.89 0 0 1-2.015-.814L8 8.07ZM3.17 12.9l2.744-2.744A2.99 2.99 0 0 0 8 11a2.99 2.99 0 0 0 2.086-.844l2.743 2.744H3.171ZM7.93 8l-2.016 2.015A2.89 2.89 0 0 1 5.1 8c0-.783.31-1.493.814-2.015L7.93 8ZM2.1 13h.83l-.83.83V13Zm.9.07-.83.83H3v-.83Zm10.9.76V13h-.83l.83.83Zm-.9-.76.83.83H13v-.83ZM3 2.93V2.1h-.83l.83.83Zm-.9-.76.83.83H2.1v-.83Z" fill-opacity=".2"/></svg>