<svg xmlns="http://www.w3.org/2000/svg" viewBox="0 0 24 24" width="1em" height="1em" focusable="false"><path fill-rule="evenodd" clip-rule="evenodd" d="M0 22V0h24v24H0v-2Zm21.93 0-1-1H20v1h1.93ZM4 22v-1h-.93l-1 1H4Zm-2-.07 1-1V20H2v1.93ZM2 4h1v-.93l-1-1V4Zm.07-2 1 1H4V2H2.07ZM20 2v1h.93l1-1H20Zm2 .07-1 1V4h1V2.07ZM22 20h-1v.93l1 1V20Zm-8.58 1.9h6.48V21h-3.536a9.93 9.93 0 0 1-2.944.9Zm2.71-.9a9.864 9.864 0 0 1-4.13.9 9.864 9.864 0 0 1-4.13-.9h8.26Zm.434-.1H19.9V20h-1.899c-.45.339-.931.64-1.437.9Zm1.269-.9a9.9 9.9 0 0 1-1.492.9H7.659a9.901 9.901 0 0 1-1.492-.9h11.666Zm.299-.1h1.697l-.793-.794c-.285.282-.587.548-.904.794Zm.833-.864c-.313.31-.646.598-.997.864H6.033a9.944 9.944 0 0 1-.998-.864l4.172-4.172A3.987 3.987 0 0 0 12 16a3.987 3.987 0 0 0 2.793-1.136l4.172 4.172ZM12 12.07l-2.722 2.722A3.887 3.887 0 0 0 12 15.9c1.059 0 2.02-.422 2.722-1.107L12 12.07Zm.07-.071 2.723 2.722A3.887 3.887 0 0 0 15.9 12c0-1.059-.422-2.02-1.107-2.722L12.07 12Zm6.966 6.965-4.172-4.172A3.987 3.987 0 0 0 16 12a3.987 3.987 0 0 0-1.136-2.793l4.172-4.172c.31.313.598.646.864.998v11.934a9.948 9.948 0 0 1-.864.998Zm-.071-14-4.172 4.171A3.987 3.987 0 0 0 12 8a3.987 3.987 0 0 0-2.793 1.136L5.035 4.964c.313-.31.646-.598.998-.864h11.934c.352.266.685.555.998.864ZM12 8.1c1.059 0 2.02.422 2.722 1.107L12 11.93 9.278 9.207A3.887 3.887 0 0 1 12 8.1Zm-.07 3.9L9.206 9.278A3.887 3.887 0 0 0 8.1 12c0 1.059.422 2.02 1.107 2.722L11.93 12ZM8 12c0-1.087.433-2.072 1.136-2.793L4.964 5.035c-.31.313-.598.646-.864.998v11.934c.266.352.555.685.864.998l4.172-4.172A3.987 3.987 0 0 1 8 12Zm11.106 7.036.794.793v-1.697c-.246.317-.511.619-.794.904ZM20 18V19.9h.9v-3.336c-.26.506-.561.986-.9 1.437Zm.9-1.66a9.9 9.9 0 0 1-.9 1.492V6.167c.342.468.643.967.9 1.492v8.682Zm.1-.21c.578-1.258.9-2.657.9-4.131a9.864 9.864 0 0 0-.9-4.13v8.26Zm0 .233a9.93 9.93 0 0 0 .9-2.944v6.48H21v-3.536Zm0-8.728c.443.912.752 1.903.9 2.944V4.1H21v3.536Zm-.1-.2V4.1H20v1.899c.339.45.64.931.9 1.437Zm-1-1.568V4.171l-.794.793c.282.285.548.587.794.904Zm-.864-.974.793-.794h-1.697c.317.246.619.512.904.794ZM18 4H19.9v-.9h-3.336c.506.26.986.561 1.437.9Zm-1.66-.9a9.897 9.897 0 0 1 1.492.9H6.167a9.897 9.897 0 0 1 1.492-.9h8.682Zm.023-.1H19.9v-.9h-6.48a9.929 9.929 0 0 1 2.944.9ZM12 2.1c1.474 0 2.873.322 4.13.9H7.87A9.863 9.863 0 0 1 12 2.1Zm-1.42 0H4.1V3h3.536a9.93 9.93 0 0 1 2.944-.9Zm-3.144 1H4.1V4h1.899c.45-.339.931-.64 1.437-.9Zm-1.568 1H4.171l.793.794c.285-.282.587-.548.904-.794Zm-.974.864L4.1 4.171v1.697c.246-.317.512-.619.794-.904ZM4 6V4.1h-.9v3.336c.26-.506.561-.986.9-1.437Zm-.9 1.66A9.897 9.897 0 0 1 4 6.167v11.666a9.897 9.897 0 0 1-.9-1.492V7.659ZM3 7.636V4.1h-.9v6.48A9.93 9.93 0 0 1 3 7.636ZM2.1 12c0-1.474.322-2.873.9-4.13v8.26A9.864 9.864 0 0 1 2.1 12Zm0 1.42v6.48H3v-3.536a9.929 9.929 0 0 1-.9-2.944Zm1 3.144V19.9H4v-1.899c-.339-.45-.64-.931-.9-1.437Zm1 1.568v1.697l.794-.793a10.044 10.044 0 0 1-.794-.904Zm.864.974-.793.794h1.697a10.038 10.038 0 0 1-.904-.794ZM6 20H4.1v.9h3.336c-.506-.26-.986-.561-1.437-.9Zm1.637 1H4.1v.9h6.48a9.931 9.931 0 0 1-2.944-.9ZM20 3.1h.83l-.83.83V3.1Zm.9.07-.83.83h.83v-.83ZM3.1 20h.83l-.83.83V20Zm.9.07-.83.83H4v-.83Zm16.9.76V20h-.83l.83.83Zm-.9-.76.83.83H20v-.83ZM4 3.93V3.1h-.83l.83.83Zm-.9-.76.83.83H3.1v-.83Z" fill-opacity=".2"/></svg>