<svg xmlns="http://www.w3.org/2000/svg" viewBox="0 0 32 32" width="1em" height="1em" focusable="false"><path fill-rule="evenodd" clip-rule="evenodd" d="M0 29V0h32v32H0v-3Zm28.93 0-1-1H27v1h1.93ZM5 29v-1h-.93l-1 1H5Zm-2-.07 1-1V27H3v1.93ZM3 5h1v-.93l-1-1V5Zm.07-2 1 1H5V3H3.07ZM27 3v1h.93l1-1H27Zm2 .07-1 1V5h1V3.07ZM29 27h-1v.93l1 1V27Zm-11.38 1.9h9.28V28h-5.891a12.91 12.91 0 0 1-3.389.9Zm3.123-.9c-1.468.58-3.068.9-4.743.9-1.675 0-3.275-.32-4.743-.9h9.486Zm.499-.1H26.9V27h-3.969c-.538.34-1.102.64-1.69.9Zm1.5-.9c-.558.343-1.144.644-1.753.9H11.01a12.85 12.85 0 0 1-1.753-.9h13.484Zm.345-.1h3.742l-1.672-1.672a13.067 13.067 0 0 1-2.07 1.672Zm2-1.743a12.965 12.965 0 0 1-2.185 1.743H9.098a12.96 12.96 0 0 1-2.184-1.743l4.879-4.88A5.98 5.98 0 0 0 16 22a5.98 5.98 0 0 0 4.207-1.722l4.88 4.879ZM16 16.071l-4.136 4.136A5.88 5.88 0 0 0 16 21.9a5.88 5.88 0 0 0 4.136-1.693L16 16.071Zm.07-.071 4.137 4.136A5.88 5.88 0 0 0 21.9 16a5.88 5.88 0 0 0-1.693-4.136L16.071 16Zm9.087 9.086-4.88-4.879A5.98 5.98 0 0 0 22 16a5.98 5.98 0 0 0-1.722-4.207l4.879-4.88A12.96 12.96 0 0 1 26.9 9.099v13.804a12.965 12.965 0 0 1-1.743 2.184Zm-.07-18.243-4.88 4.88A5.98 5.98 0 0 0 16 10a5.98 5.98 0 0 0-4.207 1.722l-4.88-4.879A12.958 12.958 0 0 1 9.099 5.1h13.804c.79.502 1.523 1.087 2.184 1.743ZM16 10.1a5.88 5.88 0 0 1 4.136 1.693L16 15.929l-4.136-4.136A5.88 5.88 0 0 1 16 10.1Zm-.07 5.9-4.137-4.136A5.88 5.88 0 0 0 10.1 16a5.88 5.88 0 0 0 1.693 4.136L15.929 16ZM10 16a5.98 5.98 0 0 1 1.722-4.207l-4.879-4.88A12.958 12.958 0 0 0 5.1 9.099v13.804c.502.79 1.087 1.523 1.743 2.184l4.88-4.879A5.98 5.98 0 0 1 10 16Zm15.228 9.157 1.672 1.672v-3.742a13.067 13.067 0 0 1-1.672 2.07ZM27 22.931V26.9h.9v-5.658c-.26.587-.56 1.151-.9 1.69Zm.9-1.942c-.256.61-.557 1.195-.9 1.753V9.258c.343.558.644 1.144.9 1.753v9.978Zm.1-.246c.58-1.468.9-3.068.9-4.743 0-1.675-.32-3.275-.9-4.743v9.486Zm0 .266a12.91 12.91 0 0 0 .9-3.389v9.28H28v-5.891Zm0-10.018a12.91 12.91 0 0 1 .9 3.389V5.1H28v5.891Zm-.1-.233V5.1H27v3.969c.34.538.64 1.102.9 1.69Zm-1-1.845V5.17l-1.672 1.672c.625.63 1.186 1.323 1.672 2.07Zm-1.743-2.14L26.829 5.1h-3.742c.747.486 1.44 1.047 2.07 1.672ZM22.931 5H26.9v-.9h-5.658c.587.26 1.151.56 1.69.9Zm-1.942-.9c.61.256 1.195.557 1.753.9H9.258a12.855 12.855 0 0 1 1.753-.9h9.978Zm.02-.1H26.9v-.9h-9.28c1.187.148 2.324.455 3.389.9ZM16 3.1c1.675 0 3.275.32 4.743.9h-9.486c1.468-.58 3.068-.9 4.743-.9Zm-1.62 0H5.1V4h5.891a12.912 12.912 0 0 1 3.389-.9Zm-3.622 1H5.1V5h3.969c.538-.34 1.102-.64 1.69-.9Zm-1.845 1H5.17l1.672 1.672A13.062 13.062 0 0 1 8.913 5.1Zm-2.14 1.743L5.1 5.171v3.742a13.062 13.062 0 0 1 1.672-2.07ZM5 9.069V5.1h-.9v5.658c.26-.587.56-1.151.9-1.69Zm-.9 1.942c.256-.61.557-1.195.9-1.753v13.484a12.857 12.857 0 0 1-.9-1.753V11.01Zm-.1-.02V5.1h-.9v9.28c.148-1.187.455-2.324.9-3.389ZM3.1 16c0-1.675.32-3.275.9-4.743v9.486c-.58-1.468-.9-3.068-.9-4.743Zm0 1.62v9.28H4v-5.891a12.912 12.912 0 0 1-.9-3.389Zm1 3.622V26.9H5v-3.969a12.97 12.97 0 0 1-.9-1.69Zm1 1.845v3.742l1.672-1.672a13.065 13.065 0 0 1-1.672-2.07Zm1.743 2.14L5.171 26.9h3.742a13.063 13.063 0 0 1-2.07-1.672ZM9.069 27H5.1v.9h5.658c-.587-.26-1.151-.56-1.69-.9Zm1.922 1H5.1v.9h9.28a12.91 12.91 0 0 1-3.389-.9ZM27 4.1h.83l-.83.83V4.1Zm.9.07-.83.83h.83v-.83ZM4.1 27h.83l-.83.83V27Zm.9.07-.83.83H5v-.83Zm22.9.76V27h-.83l.83.83Zm-.9-.76.83.83H27v-.83ZM5 4.93V4.1h-.83l.83.83Zm-.9-.76.83.83H4.1v-.83Z" fill-opacity=".2"/></svg>