<svg xmlns="http://www.w3.org/2000/svg" viewBox="0 0 48 48" width="1em" height="1em" focusable="false"><path fill-rule="evenodd" clip-rule="evenodd" d="M0 44V0h48v48H0v-4Zm44-4v3.93l-2-2V40h2Zm0-32V4.07l-2 2V8h2Zm-.07-4H40v2h1.93l2-2ZM8 4H4.07l2 2H8V4Zm-4 .07V8h2V6.07l-2-2ZM4 40v3.93l2-2V40H4Zm.07 4H8v-2H6.07l-2 2ZM40 44h3.93l-2-2H40v2Zm-13.988-.1H39.9V42h-7.172a19.868 19.868 0 0 1-6.716 1.9Zm6.485-1.9A19.823 19.823 0 0 1 24 43.9c-3.04 0-5.92-.681-8.497-1.9h16.994Zm.434-.1H39.9V40h-3.898a20.009 20.009 0 0 1-3.07 1.9Zm2.904-1.9a19.894 19.894 0 0 1-3.13 1.9h-17.41a19.894 19.894 0 0 1-3.13-1.9h23.67Zm.299-.1h3.695l-1.722-1.723a20.102 20.102 0 0 1-1.973 1.723Zm1.902-1.793a20.009 20.009 0 0 1-2.068 1.793H12.031c-.73-.55-1.42-1.15-2.067-1.793l7.708-7.708A8.971 8.971 0 0 0 24 33a8.971 8.971 0 0 0 6.328-2.6l7.708 7.707ZM24 24.07l-6.258 6.257A8.871 8.871 0 0 0 24 32.9c2.44 0 4.65-.982 6.258-2.572L24 24.072Zm.07-.071 6.258 6.258A8.871 8.871 0 0 0 32.9 24c0-2.44-.982-4.65-2.572-6.258L24.072 24ZM33 24a8.971 8.971 0 0 1-2.6 6.328l7.707 7.708a20.009 20.009 0 0 0 1.793-2.068V12.031c-.55-.73-1.15-1.42-1.793-2.067l-7.708 7.708A8.971 8.971 0 0 1 33 24Zm5.036-14.107-7.708 7.708A8.971 8.971 0 0 0 24 15a8.971 8.971 0 0 0-6.328 2.6L9.964 9.894A20.016 20.016 0 0 1 12.031 8.1h23.937c.73.55 1.421 1.15 2.068 1.793ZM24 15.1c2.44 0 4.65.982 6.258 2.572L24 23.928l-6.258-6.257A8.871 8.871 0 0 1 24 15.1Zm-.07 8.9-6.258-6.258A8.871 8.871 0 0 0 15.1 24c0 2.44.982 4.65 2.572 6.258L23.928 24ZM15 24c0-2.467.993-4.703 2.6-6.328L9.894 9.964A20.016 20.016 0 0 0 8.1 12.031v23.937c.55.73 1.15 1.421 1.793 2.068l7.708-7.708A8.971 8.971 0 0 1 15 24Zm23.177 14.107 1.723 1.722v-3.695a20.102 20.102 0 0 1-1.723 1.973ZM40 36.002V39.9h1.9v-6.969a20.009 20.009 0 0 1-1.9 3.07Zm1.9-3.297a19.894 19.894 0 0 1-1.9 3.13v-23.67a19.894 19.894 0 0 1 1.9 3.13v17.41Zm.1-.208A19.823 19.823 0 0 0 43.9 24c0-3.04-.681-5.92-1.9-8.497v16.994Zm0 .231a19.868 19.868 0 0 0 1.9-6.716V39.9H42v-7.172Zm0-17.456a19.868 19.868 0 0 1 1.9 6.716V8.1H42v7.172Zm-.1-.203V8.1H40v3.898c.721.96 1.358 1.988 1.9 3.07Zm-2-3.203V8.171l-1.723 1.722a20.107 20.107 0 0 1 1.723 1.973Zm-1.793-2.043L39.829 8.1h-3.695a20.105 20.105 0 0 1 1.973 1.723ZM36.002 8H39.9V6.1h-6.969a20.003 20.003 0 0 1 3.07 1.9Zm-3.297-1.9a19.897 19.897 0 0 1 3.13 1.9h-23.67a19.897 19.897 0 0 1 3.13-1.9h17.41Zm.023-.1H39.9V4.1H26.013c2.387.239 4.65.897 6.715 1.9ZM24 4.1c3.04 0 5.92.681 8.497 1.9H15.503A19.823 19.823 0 0 1 24 4.1Zm-2.012 0H8.1V6h7.172a19.87 19.87 0 0 1 6.716-1.9Zm-6.92 2H8.1V8h3.898a20.009 20.009 0 0 1 3.07-1.9Zm-3.202 2H8.171l1.722 1.723A20.11 20.11 0 0 1 11.866 8.1ZM9.823 9.893 8.1 8.171v3.695a20.11 20.11 0 0 1 1.723-1.973ZM8 11.998V8.1H6.1v6.969A20.009 20.009 0 0 1 8 11.998Zm-1.9 3.297a19.897 19.897 0 0 1 1.9-3.13v23.67a19.897 19.897 0 0 1-1.9-3.13v-17.41Zm-.1-.023V8.1H4.1v13.888A19.87 19.87 0 0 1 6 15.271ZM4.1 24c0-3.04.681-5.92 1.9-8.497v16.994A19.823 19.823 0 0 1 4.1 24Zm0 2.012V39.9H6v-7.172a19.869 19.869 0 0 1-1.9-6.716Zm2 6.92V39.9H8v-3.898a20.003 20.003 0 0 1-1.9-3.07Zm2 3.202v3.695l1.723-1.722A20.105 20.105 0 0 1 8.1 36.134Zm1.793 2.043L8.171 39.9h3.695a20.107 20.107 0 0 1-1.973-1.723ZM11.998 40H8.1v1.9h6.969a20.009 20.009 0 0 1-3.07-1.9Zm3.274 2H8.1v1.9h13.888a19.868 19.868 0 0 1-6.716-1.9ZM40 6.1h1.83L40 7.93V6.1Zm1.9.07L40.07 8h1.83V6.17ZM6.1 40h1.83L6.1 41.83V40Zm1.9.07L6.17 41.9H8v-1.83Zm33.9 1.76V40h-1.83l1.83 1.83ZM40 40.07l1.83 1.83H40v-1.83ZM8 7.93V6.1H6.17L8 7.93ZM6.1 6.17 7.93 8H6.1V6.17Z" fill-opacity=".2"/></svg>