<svg xmlns="http://www.w3.org/2000/svg" viewBox="0 0 16 16" width="1em" height="1em" focusable="false"><path fill-rule="evenodd" clip-rule="evenodd" d="M11.915 5.5a1.5 1.5 0 0 1-2.83 0H3v-1h6.085a1.5 1.5 0 0 1 2.83 0H13v1h-1.085ZM11 5a.5.5 0 1 1-1 0 .5.5 0 0 1 1 0ZM11.915 11H13v1h-1.085a1.5 1.5 0 0 1-2.83 0H3v-1h6.085a1.5 1.5 0 0 1 2.83 0Zm-.915.5a.5.5 0 1 1-1 0 .5.5 0 0 1 1 0ZM6.915 7.75H13v1H6.915a1.5 1.5 0 0 1-2.83 0H3v-1h1.085a1.5 1.5 0 0 1 2.83 0ZM6 8.25a.5.5 0 1 1-1 0 .5.5 0 0 1 1 0Z"/></svg>