<svg xmlns="http://www.w3.org/2000/svg" viewBox="0 0 32 32" width="1em" height="1em" focusable="false"><path fill-rule="evenodd" clip-rule="evenodd" d="M23.95 10a2.5 2.5 0 0 1-4.9 0H6V9h13.05a2.5 2.5 0 0 1 4.9 0H26v1h-2.05ZM23 9.5a1.5 1.5 0 1 1-3 0 1.5 1.5 0 0 1 3 0ZM23.95 22H26v1h-2.05a2.5 2.5 0 0 1-4.9 0H6v-1h13.05a2.5 2.5 0 0 1 4.9 0Zm-.95.5a1.5 1.5 0 1 1-3 0 1.5 1.5 0 0 1 3 0ZM12.95 15.5H26v1H12.95a2.5 2.5 0 0 1-4.9 0H6v-1h2.05a2.5 2.5 0 0 1 4.9 0ZM12 16a1.5 1.5 0 1 1-3 0 1.5 1.5 0 0 1 3 0Z"/></svg>