<svg xmlns="http://www.w3.org/2000/svg" viewBox="0 0 16 16" width="1em" height="1em" focusable="false"><path fill-rule="evenodd" clip-rule="evenodd" d="M8 3C6.62 3 5.5 4.12 5.5 5.5 5.5 6.907 6.593 8 8 8c1.336 0 2.5-1.086 2.5-2.455C10.5 4.14 9.435 3 8 3Zm0 1c-.827 0-1.5.673-1.5 1.5C6.5 6.355 7.145 7 8 7c.813 0 1.5-.667 1.5-1.455C9.5 4.664 8.855 4 8 4ZM12.03 9.85c.082.166.95 2.7.95 2.7a.353.353 0 0 1-.036.307.307.307 0 0 1-.257.143H3.313a.307.307 0 0 1-.257-.143.353.353 0 0 1-.035-.308s.786-2.348.95-2.698C4.135 9.5 4.5 9 5.187 9h5.625c.797 0 1.126.664 1.214.843l.004.008ZM11.733 12H4.262a147.751 147.751 0 0 1 .432-1.242 19.555 19.555 0 0 1 .165-.443l.017-.04a.675.675 0 0 1 .156-.22.223.223 0 0 1 .063-.04.244.244 0 0 1 .092-.015h5.625c.056 0 .086.01.103.018.02.01.045.026.074.054a.748.748 0 0 1 .168.29c.03.08.068.187.114.316A126.16 126.16 0 0 1 11.733 12Z"/></svg>