<svg xmlns="http://www.w3.org/2000/svg" viewBox="0 0 24 24" width="1em" height="1em" focusable="false"><path fill-rule="evenodd" clip-rule="evenodd" d="M12 4C9.794 4 8 5.794 8 8c0 2.262 1.738 4 4 4 2.15 0 4-1.752 4-3.91C16 5.804 14.29 4 12 4Zm0 1c-1.654 0-3 1.346-3 3 0 1.71 1.29 3 3 3 1.626 0 3-1.333 3-2.91C15 6.328 13.71 5 12 5ZM4.088 19.785a.5.5 0 0 1-.056-.461l1.5-4a.326.326 0 0 1 .02-.048C5.578 15.225 6.205 14 7.5 14h9c1.278 0 1.905 1.194 1.947 1.274l.001.002 1.52 4.048A.501.501 0 0 1 19.5 20h-15a.5.5 0 0 1-.41-.215ZM5.222 19l1.236-3.296a1.815 1.815 0 0 1 .29-.368c.203-.198.446-.336.751-.336h9c.305 0 .549.138.753.336a1.822 1.822 0 0 1 .285.36L18.777 19H5.223Z"/></svg>