<svg xmlns="http://www.w3.org/2000/svg" viewBox="0 0 32 32" width="1em" height="1em" focusable="false"><path fill-rule="evenodd" clip-rule="evenodd" d="M15.999 5c-2.758 0-5 2.242-5 5 0 2.832 2.168 5 5 5 2.691 0 5-2.197 5-4.88 0-2.874-2.14-5.12-5-5.12Zm0 1c-2.205 0-4 1.795-4 4 0 2.28 1.72 4 4 4 2.168 0 4-1.777 4-3.88 0-2.35-1.72-4.12-4-4.12ZM26.956 25.986l-2.09-6.072-.002-.004c-.057-.118-.92-1.91-2.677-1.91H9.812c-1.78 0-2.642 1.837-2.677 1.914a.514.514 0 0 0-.028.072l-2.063 6a.81.81 0 0 0 .077.691c.13.203.34.323.566.323h20.625c.226 0 .438-.12.566-.323a.81.81 0 0 0 .078-.691ZM6.097 26l1.954-5.685a2.175 2.175 0 0 1 .116-.205c.088-.141.215-.321.38-.495.334-.355.75-.615 1.265-.615h12.375c.51 0 .92.254 1.253.602.276.288.444.588.502.699L25.903 26H6.097Z"/></svg>