<svg xmlns="http://www.w3.org/2000/svg" viewBox="0 0 48 48" width="1em" height="1em" focusable="false"><path fill-rule="evenodd" clip-rule="evenodd" d="M23.999 8c-3.86 0-7 3.14-7 7 0 3.972 3.028 7 7 7 3.775 0 7-3.085 7-6.82 0-4.048-3-7.18-7-7.18Zm0 1c-3.308 0-6 2.692-6 6 0 3.42 2.58 6 6 6 3.252 0 6-2.666 6-5.82 0-3.524-2.58-6.18-6-6.18ZM8.177 39.534a1.162 1.162 0 0 1-.112-.999l3-8.666a.735.735 0 0 1 .04-.104c.052-.11 1.306-2.765 3.894-2.765h18c2.556 0 3.811 2.588 3.894 2.76l.003.005 3.04 8.77c.116.334.072.707-.114 1A.978.978 0 0 1 39 40H8.999a.98.98 0 0 1-.822-.466Zm3.84-9.359a4.91 4.91 0 0 1 .809-1.145c.534-.563 1.25-1.03 2.173-1.03h18c.912 0 1.621.455 2.154 1.009.468.485.74.988.819 1.143l3.02 8.71a.165.165 0 0 1-.014.136l-.001.002H9.022l-.003-.004a.164.164 0 0 1-.01-.132l3.008-8.689Z"/></svg>