<svg xmlns="http://www.w3.org/2000/svg" viewBox="0 0 24 24" width="1em" height="1em" focusable="false"><path fill-rule="evenodd" clip-rule="evenodd" d="M19 15h2.5a.5.5 0 0 0 .5-.5v-9a.5.5 0 0 0-.5-.5h-19a.5.5 0 0 0-.5.5v9a.5.5 0 0 0 .5.5h15a.5.5 0 0 0 .5-.5v-3a.5.5 0 0 0-.5-.5h-11a.5.5 0 0 0-.5.5V14H3V6h18v8h-2v1ZM7 14h10v-2H7v2Zm7.5 6h1v-1.173l.94.543.5-.865-.859-.496.913-.528-.5-.866-.994.575V16h-1v1.096l-1.023-.59-.5.865 1.105.638-1.05.607.5.866.968-.56V20ZM8 20H7c.001-.378.156-.739.431-1 .13-.15.17-.2.17-.33s0-.19-.17-.34a1.383 1.383 0 0 1-.431-1 1.4 1.4 0 0 1 .431-1l.016-.018c.117-.136.154-.178.154-.312h1c0 .378-.157.739-.43 1-.131.15-.171.2-.171.33s0 .18.171.34c.275.259.432.621.43 1a1.407 1.407 0 0 1-.43 1C8 19.82 8 19.86 8 20Zm2 0h1c0-.14 0-.18.171-.33.271-.262.427-.622.43-1a1.365 1.365 0 0 0-.43-1C11 17.51 11 17.46 11 17.33c0-.13.04-.18.171-.33.273-.261.43-.622.43-1h-1c0 .134-.037.177-.154.312A1.4 1.4 0 0 0 10 17.33c.001.378.156.739.431 1 .17.15.17.21.17.34 0 .13-.04.18-.17.33-.275.261-.43.622-.431 1Z"/><mask id="a" style="mask-type:alpha" maskUnits="userSpaceOnUse" x="2" y="5" width="20" height="15"><path fill-rule="evenodd" clip-rule="evenodd" d="M19 15h2.5a.5.5 0 0 0 .5-.5v-9a.5.5 0 0 0-.5-.5h-19a.5.5 0 0 0-.5.5v9a.5.5 0 0 0 .5.5h15a.5.5 0 0 0 .5-.5v-3a.5.5 0 0 0-.5-.5h-11a.5.5 0 0 0-.5.5V14H3V6h18v8h-2v1ZM7 14h10v-2H7v2Zm7.5 6h1v-1.173l.94.543.5-.865-.859-.496.913-.528-.5-.866-.994.575V16h-1v1.096l-1.023-.59-.5.865 1.105.638-1.05.607.5.866.968-.56V20ZM8 20H7c.001-.378.156-.739.431-1 .13-.15.17-.2.17-.33s0-.19-.17-.34a1.383 1.383 0 0 1-.431-1 1.4 1.4 0 0 1 .431-1l.016-.018c.117-.136.154-.178.154-.312h1c0 .378-.157.739-.43 1-.131.15-.171.2-.171.33s0 .18.171.34c.275.259.432.621.43 1a1.407 1.407 0 0 1-.43 1C8 19.82 8 19.86 8 20Zm2 0h1c0-.14 0-.18.171-.33.271-.262.427-.622.43-1a1.365 1.365 0 0 0-.43-1C11 17.51 11 17.46 11 17.33c0-.13.04-.18.171-.33.273-.261.43-.622.43-1h-1c0 .134-.037.177-.154.312A1.4 1.4 0 0 0 10 17.33c.001.378.156.739.431 1 .17.15.17.21.17.34 0 .13-.04.18-.17.33-.275.261-.43.622-.431 1Z"/></mask></svg>