<svg xmlns="http://www.w3.org/2000/svg" viewBox="0 0 24 24" width="1em" height="1em" focusable="false"><path fill-rule="evenodd" clip-rule="evenodd" d="m5.36 6.451-.56-.848L8.664 3l.56.848L5.36 6.45ZM9 12.5v-1h2.5V8h1v4a.5.5 0 0 1-.5.5H9Zm5.879-8.652L18.74 6.45l.56-.848L15.437 3l-.56.848ZM12.004 6c-3.31 0-6 2.691-6 6s2.69 6 6 6c3.309 0 6-2.691 6-6s-2.691-6-6-6Zm-7.008 6c0-3.86 3.141-7 7-7s7 3.14 7 7c0 3.859-3.141 7-7 7s-7-3.141-7-7Z"/><mask id="a" style="mask-type:alpha" maskUnits="userSpaceOnUse" x="4" y="3" width="16" height="16"><path fill-rule="evenodd" clip-rule="evenodd" d="m5.36 6.451-.56-.848L8.664 3l.56.848L5.36 6.45ZM9 12.5v-1h2.5V8h1v4a.5.5 0 0 1-.5.5H9Zm5.879-8.652L18.74 6.45l.56-.848L15.437 3l-.56.848ZM12.004 6c-3.31 0-6 2.691-6 6s2.69 6 6 6c3.309 0 6-2.691 6-6s-2.691-6-6-6Zm-7.008 6c0-3.86 3.141-7 7-7s7 3.14 7 7c0 3.859-3.141 7-7 7s-7-3.141-7-7Z"/></mask></svg>