<svg xmlns="http://www.w3.org/2000/svg" viewBox="0 0 24 24" width="1em" height="1em" focusable="false"><path fill-rule="evenodd" clip-rule="evenodd" d="m16.807 6.48.504 3.78a3.858 3.858 0 0 1 3.814 3.85 3.858 3.858 0 0 1-3.854 3.854 3.858 3.858 0 0 1-3.854-3.854c0-1.796 1.239-3.296 2.904-3.722l-.069-.515-5.888 3.01c.132.388.219.796.219 1.227a3.858 3.858 0 0 1-3.854 3.854 3.858 3.858 0 0 1-3.854-3.854 3.858 3.858 0 0 1 3.854-3.854c.227 0 .447.029.663.067l.326-1.234V8.07H6.639v-1h3.205v1H8.719v.804l7.26-1.05-.104-.78-2.096-.01.004-1 2.531.012a.5.5 0 0 1 .493.434ZM3.873 14.11a2.857 2.857 0 0 0 2.854 2.855 2.857 2.857 0 0 0 2.854-2.853c0-1.081-.61-2.011-1.497-2.496l-.51 1.935a.79.79 0 0 1 .144.436.813.813 0 0 1-1.626 0c0-.35.221-.641.53-.756l.511-1.933-.049-.007a2.465 2.465 0 0 0-.357-.034 2.857 2.857 0 0 0-2.854 2.854Zm6.062-2.131a3.872 3.872 0 0 0-1.59-1.355l.19-.72a.01.01 0 0 1 .005.002.58.58 0 0 0 .076-.004l7.493-1.084v.005l-6.174 3.156Zm4.481 2.132a2.857 2.857 0 0 0 2.854 2.854 2.858 2.858 0 0 0 2.855-2.852 2.85 2.85 0 0 0-2.677-2.837l.269 2.015c.245.14.418.393.418.696a.813.813 0 0 1-1.626 0c0-.212.086-.401.219-.546l-.274-2.051a2.848 2.848 0 0 0-2.038 2.72Z"/><mask id="a" style="mask-type:alpha" maskUnits="userSpaceOnUse" x="2" y="6" width="20" height="12"><path fill-rule="evenodd" clip-rule="evenodd" d="m16.807 6.48.504 3.78a3.858 3.858 0 0 1 3.814 3.85 3.858 3.858 0 0 1-3.854 3.854 3.858 3.858 0 0 1-3.854-3.854c0-1.796 1.239-3.296 2.904-3.722l-.069-.515-5.888 3.01c.132.388.219.796.219 1.227a3.858 3.858 0 0 1-3.854 3.854 3.858 3.858 0 0 1-3.854-3.854 3.858 3.858 0 0 1 3.854-3.854c.227 0 .447.029.663.067l.326-1.234V8.07H6.639v-1h3.205v1H8.719v.804l7.26-1.05-.104-.78-2.096-.01.004-1 2.531.012a.5.5 0 0 1 .493.434ZM3.873 14.11a2.857 2.857 0 0 0 2.854 2.855 2.857 2.857 0 0 0 2.854-2.853c0-1.081-.61-2.011-1.497-2.496l-.51 1.935a.79.79 0 0 1 .144.436.813.813 0 0 1-1.626 0c0-.35.221-.641.53-.756l.511-1.933-.049-.007a2.465 2.465 0 0 0-.357-.034 2.857 2.857 0 0 0-2.854 2.854Zm6.062-2.131a3.872 3.872 0 0 0-1.59-1.355l.19-.72a.01.01 0 0 1 .005.002.58.58 0 0 0 .076-.004l7.493-1.084v.005l-6.174 3.156Zm4.481 2.132a2.857 2.857 0 0 0 2.854 2.854 2.858 2.858 0 0 0 2.855-2.852 2.85 2.85 0 0 0-2.677-2.837l.269 2.015c.245.14.418.393.418.696a.813.813 0 0 1-1.626 0c0-.212.086-.401.219-.546l-.274-2.051a2.848 2.848 0 0 0-2.038 2.72Z"/></mask></svg>