<svg xmlns="http://www.w3.org/2000/svg" viewBox="0 0 24 24" width="1em" height="1em" focusable="false"><path d="m17.84 10.328 1 .22 1.15-4.934a.502.502 0 0 0-.61-.6l-3.66.92-1.8-2.71a.541.541 0 0 0-.84 0l-1.66 2.49-2.569-2.56a.492.492 0 0 0-.471-.14.497.497 0 0 0-.349.33l-.85 2.53-2.521-.84a.513.513 0 0 0-.45.06.523.523 0 0 0-.21.41v2.5h1v-1.81l2.34.78.008.002.005.002a.49.49 0 0 0 .618-.314l.75-2.23 2.43 2.42a.498.498 0 0 0 .399.15.548.548 0 0 0 .37-.22l1.58-2.38 1.58 2.38a.54.54 0 0 0 .54.21l3.22-.81-1 4.144Z"/><path fill-rule="evenodd" clip-rule="evenodd" d="M18.92 19.004h.58a1.813 1.813 0 0 0 1.721-1.4l.559-2.55c.092-.385.019-.79-.2-1.12a1.456 1.456 0 0 0-1-.64l-3-.59a3.92 3.92 0 0 1-1.5-.74l-2.5-2.2a3.585 3.585 0 0 0-2.08-.79h-5a2.74 2.74 0 0 0-2 1l-1.8 2.43a4.007 4.007 0 0 0-.7 2.09v3a1.5 1.5 0 0 0 1.5 1.5h.548a2.501 2.501 0 1 0 .004-1H3.5a.5.5 0 0 1-.5-.5v-3a3.008 3.008 0 0 1 .5-1.49l1.801-2.43a1.807 1.807 0 0 1 1.199-.6h5a2.571 2.571 0 0 1 1.421.54l2.5 2.2a4.726 4.726 0 0 0 2 1l3 .59a.512.512 0 0 1 .309.2c.07.11.091.244.06.37l-.56 2.55a.827.827 0 0 1-.73.58h-.58a2.5 2.5 0 0 0-4.9 0h-3.06v1h3.06a2.5 2.5 0 0 0 4.9 0Zm-3.91-.155a1.5 1.5 0 1 0 0-.69v.69ZM5 18.504a1.5 1.5 0 1 1 3 0 1.5 1.5 0 0 1-3 0Z"/><path d="m17.84 10.328 1 .22 1.15-4.934a.502.502 0 0 0-.61-.6l-3.66.92-1.8-2.71a.541.541 0 0 0-.84 0l-1.66 2.49-2.569-2.56a.492.492 0 0 0-.471-.14.497.497 0 0 0-.349.33l-.85 2.53-2.521-.84a.513.513 0 0 0-.45.06.523.523 0 0 0-.21.41v2.5h1v-1.81l2.34.78.008.002.005.002a.49.49 0 0 0 .618-.314l.75-2.23 2.43 2.42a.498.498 0 0 0 .399.15.548.548 0 0 0 .37-.22l1.58-2.38 1.58 2.38a.54.54 0 0 0 .54.21l3.22-.81-1 4.144Z"/><path fill-rule="evenodd" clip-rule="evenodd" d="M18.92 19.004h.58a1.813 1.813 0 0 0 1.721-1.4l.559-2.55c.092-.385.019-.79-.2-1.12a1.456 1.456 0 0 0-1-.64l-3-.59a3.92 3.92 0 0 1-1.5-.74l-2.5-2.2a3.585 3.585 0 0 0-2.08-.79h-5a2.74 2.74 0 0 0-2 1l-1.8 2.43a4.007 4.007 0 0 0-.7 2.09v3a1.5 1.5 0 0 0 1.5 1.5h.548a2.501 2.501 0 1 0 .004-1H3.5a.5.5 0 0 1-.5-.5v-3a3.008 3.008 0 0 1 .5-1.49l1.801-2.43a1.807 1.807 0 0 1 1.199-.6h5a2.571 2.571 0 0 1 1.421.54l2.5 2.2a4.726 4.726 0 0 0 2 1l3 .59a.512.512 0 0 1 .309.2c.07.11.091.244.06.37l-.56 2.55a.827.827 0 0 1-.73.58h-.58a2.5 2.5 0 0 0-4.9 0h-3.06v1h3.06a2.5 2.5 0 0 0 4.9 0Zm-3.91-.155a1.5 1.5 0 1 0 0-.69v.69ZM5 18.504a1.5 1.5 0 1 1 3 0 1.5 1.5 0 0 1-3 0Z"/></svg>