<svg xmlns="http://www.w3.org/2000/svg" viewBox="0 0 24 24" width="1em" height="1em" focusable="false"><path d="M7.5 8h1V7h-1V6h-1v1h-1v1h1v1h1V8Z"/><path fill-rule="evenodd" clip-rule="evenodd" d="M3.5 7.5a3.5 3.5 0 1 0 7 0 3.5 3.5 0 0 0-7 0Zm1 0a2.5 2.5 0 1 1 5 0 2.5 2.5 0 0 1-5 0Z"/><path d="M19.5 15.03h-.55a2.5 2.5 0 0 0-4.9 0h-3.09v1h4.05v-.679a1.5 1.5 0 0 1 2.99.179v.5h1.5a1.813 1.813 0 0 0 1.721-1.4l.559-2.55c.092-.385.019-.79-.2-1.12a1.456 1.456 0 0 0-1-.64l-3-.59a3.92 3.92 0 0 1-1.5-.74l-2.5-2.2A3.585 3.585 0 0 0 11.5 6v1a2.571 2.571 0 0 1 1.421.54l2.5 2.2a4.726 4.726 0 0 0 2 1l3 .59a.512.512 0 0 1 .309.2c.07.11.091.244.06.37l-.56 2.55a.827.827 0 0 1-.73.58ZM3 11.52a3.008 3.008 0 0 1 .5-1.49l-.8-.6a4.007 4.007 0 0 0-.7 2.09v3a1.5 1.5 0 0 0 1.5 1.5H5v-.49a1.5 1.5 0 1 1 3 0h1a2.5 2.5 0 0 0-4.948-.51H3.5a.5.5 0 0 1-.5-.5v-3ZM7.5 8h1V7h-1V6h-1v1h-1v1h1v1h1V8Z"/><path fill-rule="evenodd" clip-rule="evenodd" d="M3.5 7.5a3.5 3.5 0 1 0 7 0 3.5 3.5 0 0 0-7 0Zm1 0a2.5 2.5 0 1 1 5 0 2.5 2.5 0 0 1-5 0Z"/><path d="M19.5 15.03h-.55a2.5 2.5 0 0 0-4.9 0h-3.09v1h4.05v-.679a1.5 1.5 0 0 1 2.99.179v.5h1.5a1.813 1.813 0 0 0 1.721-1.4l.559-2.55c.092-.385.019-.79-.2-1.12a1.456 1.456 0 0 0-1-.64l-3-.59a3.92 3.92 0 0 1-1.5-.74l-2.5-2.2A3.585 3.585 0 0 0 11.5 6v1a2.571 2.571 0 0 1 1.421.54l2.5 2.2a4.726 4.726 0 0 0 2 1l3 .59a.512.512 0 0 1 .309.2c.07.11.091.244.06.37l-.56 2.55a.827.827 0 0 1-.73.58ZM3 11.52a3.008 3.008 0 0 1 .5-1.49l-.8-.6a4.007 4.007 0 0 0-.7 2.09v3a1.5 1.5 0 0 0 1.5 1.5H5v-.49a1.5 1.5 0 1 1 3 0h1a2.5 2.5 0 0 0-4.948-.51H3.5a.5.5 0 0 1-.5-.5v-3Z"/></svg>