<svg xmlns="http://www.w3.org/2000/svg" viewBox="0 0 24 24" width="1em" height="1em" focusable="false"><path fill-rule="evenodd" clip-rule="evenodd" d="M19.5 19H13v-1h6V6H5v4H4V5.5a.5.5 0 0 1 .5-.5h15a.5.5 0 0 1 .5.5v13a.5.5 0 0 1-.5.5ZM10 19H9v-.5C9 15.767 7.233 14 4.5 14H4v-1h.5c3.29 0 5.5 2.21 5.5 5.5v.5Zm-4 0h1v-.5C7 17.215 5.785 16 4.5 16H4v1h.5c.729 0 1.5.771 1.5 1.5v.5Z"/><mask id="a" style="mask-type:alpha" maskUnits="userSpaceOnUse" x="4" y="5" width="16" height="14"><path fill-rule="evenodd" clip-rule="evenodd" d="M19.5 19H13v-1h6V6H5v4H4V5.5a.5.5 0 0 1 .5-.5h15a.5.5 0 0 1 .5.5v13a.5.5 0 0 1-.5.5ZM10 19H9v-.5C9 15.767 7.233 14 4.5 14H4v-1h.5c3.29 0 5.5 2.21 5.5 5.5v.5Zm-4 0h1v-.5C7 17.215 5.785 16 4.5 16H4v1h.5c.729 0 1.5.771 1.5 1.5v.5Z"/></mask></svg>