<svg xmlns="http://www.w3.org/2000/svg" viewBox="0 0 24 24" width="1em" height="1em" focusable="false"><path fill-rule="evenodd" clip-rule="evenodd" d="M7 9v1h2V9H7Zm5.929 5.572a.504.504 0 0 1-.354-.146l-1.403-1.405.707-.707 1.05 1.051 2.79-2.79.708.706-3.144 3.145a.504.504 0 0 1-.354.146ZM9 12v1H7v-1h2Zm-2 3v1h2v-1H7Zm8-9H9V4h6v2ZM8.5 7h7a.5.5 0 0 0 .5-.5v-3a.5.5 0 0 0-.5-.5h-7a.5.5 0 0 0-.5.5v3a.5.5 0 0 0 .5.5Zm-3 13h13a.5.5 0 0 0 .5-.5v-15a.5.5 0 0 0-.5-.5H17v1h1v14H6V5h1V4H5.5a.5.5 0 0 0-.5.5v15a.5.5 0 0 0 .5.5Z"/><mask id="a" style="mask-type:alpha" maskUnits="userSpaceOnUse" x="5" y="3" width="14" height="17"><path fill-rule="evenodd" clip-rule="evenodd" d="M7 9v1h2V9H7Zm5.929 5.572a.504.504 0 0 1-.354-.146l-1.403-1.405.707-.707 1.05 1.051 2.79-2.79.708.706-3.144 3.145a.504.504 0 0 1-.354.146ZM9 12v1H7v-1h2Zm-2 3v1h2v-1H7Zm8-9H9V4h6v2ZM8.5 7h7a.5.5 0 0 0 .5-.5v-3a.5.5 0 0 0-.5-.5h-7a.5.5 0 0 0-.5.5v3a.5.5 0 0 0 .5.5Zm-3 13h13a.5.5 0 0 0 .5-.5v-15a.5.5 0 0 0-.5-.5H17v1h1v14H6V5h1V4H5.5a.5.5 0 0 0-.5.5v15a.5.5 0 0 0 .5.5Z"/></mask></svg>