<svg xmlns="http://www.w3.org/2000/svg" viewBox="0 0 24 24" width="1em" height="1em" focusable="false"><path fill-rule="evenodd" clip-rule="evenodd" d="M2 12C2 6.477 6.477 2 12 2s10 4.477 10 10-4.477 10-10 10S2 17.523 2 12Zm1 0c0 4.963 4.037 9 9 9s9-4.037 9-9-4.037-9-9-9-9 4.037-9 9Zm11.633-2.744a2.256 2.256 0 0 0-.854-.607 2.996 2.996 0 0 0-1.165-.212c-.396 0-.77.07-1.116.212-.35.141-.655.35-.923.625a2.863 2.863 0 0 0-.625 1.018c-.15.401-.225.854-.225 1.358 0 .468.059.89.18 1.265.119.375.295.694.525.959.23.264.517.466.855.607.34.141.728.211 1.166.211.396 0 .768-.07 1.115-.211.349-.142.656-.35.923-.626.267-.275.476-.615.626-1.017.149-.402.225-.855.225-1.359 0-.468-.061-.89-.18-1.265a2.67 2.67 0 0 0-.527-.958Zm-.312 3.352a2.096 2.096 0 0 1-.408.747 1.74 1.74 0 0 1-.617.454 1.878 1.878 0 0 1-.766.153c-.317 0-.598-.058-.841-.171a1.595 1.595 0 0 1-.607-.495 2.253 2.253 0 0 1-.364-.774 3.787 3.787 0 0 1-.122-.999c0-.372.048-.706.144-1.003.097-.298.232-.546.41-.747.177-.201.383-.353.617-.455.233-.102.488-.152.764-.152.619 0 1.096.217 1.432.652.336.435.504 1.03.504 1.786a3.248 3.248 0 0 1-.146 1.004Zm4.26.157c0 .27-.068.527-.203.77s-.346.506-.633.787l-.72.73a50.19 50.19 0 0 1 1.745-.028v.656h-2.672v-.585l.99-1.014c.246-.245.422-.46.526-.646.104-.184.157-.364.157-.538a.634.634 0 0 0-.176-.47c-.117-.118-.283-.176-.5-.176-.143 0-.287.02-.432.06a2.947 2.947 0 0 0-.467.174v-.62c.167-.075.34-.135.52-.179.18-.043.364-.064.55-.064.414 0 .736.103.968.31.232.207.347.485.347.833Zm-12.449.57c.33.407.825.609 1.485.609.245 0 .49-.022.728-.067.24-.045.494-.104.764-.176v.729a6.423 6.423 0 0 1-.818.18 5.496 5.496 0 0 1-.828.063c-.456 0-.857-.071-1.206-.212a2.158 2.158 0 0 1-.859-.612 2.53 2.53 0 0 1-.495-.944 4.318 4.318 0 0 1-.157-1.202c0-.462.06-.892.181-1.291a2.83 2.83 0 0 1 .544-1.03c.243-.288.55-.512.923-.671a3.217 3.217 0 0 1 1.277-.238 4.615 4.615 0 0 1 1.37.207v.818a4.922 4.922 0 0 0-.77-.243 3.38 3.38 0 0 0-.707-.072c-.319 0-.6.06-.847.18-.246.12-.448.29-.608.51a2.32 2.32 0 0 0-.355.763 3.764 3.764 0 0 0-.116.982c0 .739.164 1.313.494 1.718Z"/><mask id="a" style="mask-type:alpha" maskUnits="userSpaceOnUse" x="2" y="2" width="20" height="20"><path fill-rule="evenodd" clip-rule="evenodd" d="M2 12C2 6.477 6.477 2 12 2s10 4.477 10 10-4.477 10-10 10S2 17.523 2 12Zm1 0c0 4.963 4.037 9 9 9s9-4.037 9-9-4.037-9-9-9-9 4.037-9 9Zm11.633-2.744a2.256 2.256 0 0 0-.854-.607 2.996 2.996 0 0 0-1.165-.212c-.396 0-.77.07-1.116.212-.35.141-.655.35-.923.625a2.863 2.863 0 0 0-.625 1.018c-.15.401-.225.854-.225 1.358 0 .468.059.89.18 1.265.119.375.295.694.525.959.23.264.517.466.855.607.34.141.728.211 1.166.211.396 0 .768-.07 1.115-.211.349-.142.656-.35.923-.626.267-.275.476-.615.626-1.017.149-.402.225-.855.225-1.359 0-.468-.061-.89-.18-1.265a2.67 2.67 0 0 0-.527-.958Zm-.312 3.352a2.096 2.096 0 0 1-.408.747 1.74 1.74 0 0 1-.617.454 1.878 1.878 0 0 1-.766.153c-.317 0-.598-.058-.841-.171a1.595 1.595 0 0 1-.607-.495 2.253 2.253 0 0 1-.364-.774 3.787 3.787 0 0 1-.122-.999c0-.372.048-.706.144-1.003.097-.298.232-.546.41-.747.177-.201.383-.353.617-.455.233-.102.488-.152.764-.152.619 0 1.096.217 1.432.652.336.435.504 1.03.504 1.786a3.248 3.248 0 0 1-.146 1.004Zm4.26.157c0 .27-.068.527-.203.77s-.346.506-.633.787l-.72.73a50.19 50.19 0 0 1 1.745-.028v.656h-2.672v-.585l.99-1.014c.246-.245.422-.46.526-.646.104-.184.157-.364.157-.538a.634.634 0 0 0-.176-.47c-.117-.118-.283-.176-.5-.176-.143 0-.287.02-.432.06a2.947 2.947 0 0 0-.467.174v-.62c.167-.075.34-.135.52-.179.18-.043.364-.064.55-.064.414 0 .736.103.968.31.232.207.347.485.347.833Zm-12.449.57c.33.407.825.609 1.485.609.245 0 .49-.022.728-.067.24-.045.494-.104.764-.176v.729a6.423 6.423 0 0 1-.818.18 5.496 5.496 0 0 1-.828.063c-.456 0-.857-.071-1.206-.212a2.158 2.158 0 0 1-.859-.612 2.53 2.53 0 0 1-.495-.944 4.318 4.318 0 0 1-.157-1.202c0-.462.06-.892.181-1.291a2.83 2.83 0 0 1 .544-1.03c.243-.288.55-.512.923-.671a3.217 3.217 0 0 1 1.277-.238 4.615 4.615 0 0 1 1.37.207v.818a4.922 4.922 0 0 0-.77-.243 3.38 3.38 0 0 0-.707-.072c-.319 0-.6.06-.847.18-.246.12-.448.29-.608.51a2.32 2.32 0 0 0-.355.763 3.764 3.764 0 0 0-.116.982c0 .739.164 1.313.494 1.718Z"/></mask></svg>