<svg xmlns="http://www.w3.org/2000/svg" viewBox="0 0 24 24" width="1em" height="1em" focusable="false"><path fill-rule="evenodd" clip-rule="evenodd" d="m18.604 16.63.479.879a4.55 4.55 0 0 0 2.202-2.73 4.544 4.544 0 0 0-.372-3.487 4.58 4.58 0 0 0-4.021-2.39h-.653a6.98 6.98 0 0 0-3.132-3.925 6.985 6.985 0 0 0-5.33-.75 6.985 6.985 0 0 0-4.3 3.239 6.988 6.988 0 0 0-.75 5.33 7.063 7.063 0 0 0 1.539 2.898l.75-.662a6.042 6.042 0 0 1-1.32-2.485 5.998 5.998 0 0 1 .643-4.574 5.99 5.99 0 0 1 3.688-2.778 5.99 5.99 0 0 1 4.574.643 5.99 5.99 0 0 1 2.778 3.688.5.5 0 0 0 .484.375h1.029a3.584 3.584 0 0 1 1.712 6.73ZM7.55 18.099c.275.11.597.168.957.168a4.525 4.525 0 0 0 1.294-.19l.036-.01v-.671l-.063.018c-.2.054-.4.1-.591.136-.183.034-.37.052-.558.052-.495 0-.87-.153-1.116-.455-.248-.305-.374-.743-.374-1.305 0-.28.03-.532.089-.752.06-.218.15-.411.269-.576.119-.163.27-.291.455-.38.184-.09.398-.136.636-.136.186 0 .368.019.538.055.177.039.375.102.59.188l.069.026v-.747l-.034-.012a3.704 3.704 0 0 0-1.079-.162c-.38 0-.721.063-1.014.189a1.939 1.939 0 0 0-.736.535 2.273 2.273 0 0 0-.434.818 3.577 3.577 0 0 0-.142 1.02c0 .343.042.662.124.948.084.29.217.543.396.753.18.214.412.379.688.49Zm9.798.952H15.17v-.525l.014-.015.77-.788c.188-.187.323-.352.402-.492a.805.805 0 0 0 .116-.394c0-.142-.04-.25-.122-.332-.081-.08-.2-.121-.354-.121-.105 0-.214.015-.323.044a2.166 2.166 0 0 0-.354.134l-.071.034V16l.029-.014c.13-.06.269-.105.414-.142.148-.035.292-.052.439-.052.332 0 .597.086.785.255.19.17.286.4.286.685 0 .217-.055.426-.163.623a2.913 2.913 0 0 1-.502.624l-.473.478.34-.008.145-.003c.242-.005.493-.007.75-.007h.05v.61Zm-2.81-4.318a2.15 2.15 0 0 0-.418-.764 1.842 1.842 0 0 0-.684-.485 2.42 2.42 0 0 0-.926-.168c-.313 0-.611.057-.887.168-.276.112-.523.28-.735.498-.211.218-.378.49-.497.809a3.078 3.078 0 0 0-.178 1.074c0 .366.048.702.142.999.096.296.237.553.42.763.184.21.414.374.684.485.27.112.582.169.926.169.312 0 .61-.057.887-.17.276-.11.523-.278.734-.496.21-.22.379-.49.498-.81.118-.316.178-.678.178-1.073a3.328 3.328 0 0 0-.143-1Zm-.697 1.877a1.632 1.632 0 0 1-.318.58 1.371 1.371 0 0 1-1.075.474c-.247 0-.465-.044-.654-.133a1.254 1.254 0 0 1-.473-.385 1.752 1.752 0 0 1-.283-.603 2.972 2.972 0 0 1-.095-.776c0-.29.037-.55.112-.781.074-.23.181-.424.318-.581.138-.156.298-.273.48-.354a1.48 1.48 0 0 1 .594-.118c.481 0 .852.169 1.113.507.262.339.393.802.393 1.39 0 .289-.038.55-.112.78Z"/><mask id="a" style="mask-type:alpha" maskUnits="userSpaceOnUse" x="2" y="4" width="20" height="16"><path fill-rule="evenodd" clip-rule="evenodd" d="m18.604 16.63.479.879a4.55 4.55 0 0 0 2.202-2.73 4.544 4.544 0 0 0-.372-3.487 4.58 4.58 0 0 0-4.021-2.39h-.653a6.98 6.98 0 0 0-3.132-3.925 6.985 6.985 0 0 0-5.33-.75 6.985 6.985 0 0 0-4.3 3.239 6.988 6.988 0 0 0-.75 5.33 7.063 7.063 0 0 0 1.539 2.898l.75-.662a6.042 6.042 0 0 1-1.32-2.485 5.998 5.998 0 0 1 .643-4.574 5.99 5.99 0 0 1 3.688-2.778 5.99 5.99 0 0 1 4.574.643 5.99 5.99 0 0 1 2.778 3.688.5.5 0 0 0 .484.375h1.029a3.584 3.584 0 0 1 1.712 6.73ZM7.55 18.099c.275.11.597.168.957.168a4.525 4.525 0 0 0 1.294-.19l.036-.01v-.671l-.063.018c-.2.054-.4.1-.591.136-.183.034-.37.052-.558.052-.495 0-.87-.153-1.116-.455-.248-.305-.374-.743-.374-1.305 0-.28.03-.532.089-.752.06-.218.15-.411.269-.576.119-.163.27-.291.455-.38.184-.09.398-.136.636-.136.186 0 .368.019.538.055.177.039.375.102.59.188l.069.026v-.747l-.034-.012a3.704 3.704 0 0 0-1.079-.162c-.38 0-.721.063-1.014.189a1.939 1.939 0 0 0-.736.535 2.273 2.273 0 0 0-.434.818 3.577 3.577 0 0 0-.142 1.02c0 .343.042.662.124.948.084.29.217.543.396.753.18.214.412.379.688.49Zm9.798.952H15.17v-.525l.014-.015.77-.788c.188-.187.323-.352.402-.492a.805.805 0 0 0 .116-.394c0-.142-.04-.25-.122-.332-.081-.08-.2-.121-.354-.121-.105 0-.214.015-.323.044a2.166 2.166 0 0 0-.354.134l-.071.034V16l.029-.014c.13-.06.269-.105.414-.142.148-.035.292-.052.439-.052.332 0 .597.086.785.255.19.17.286.4.286.685 0 .217-.055.426-.163.623a2.913 2.913 0 0 1-.502.624l-.473.478.34-.008.145-.003c.242-.005.493-.007.75-.007h.05v.61Zm-2.81-4.318a2.15 2.15 0 0 0-.418-.764 1.842 1.842 0 0 0-.684-.485 2.42 2.42 0 0 0-.926-.168c-.313 0-.611.057-.887.168-.276.112-.523.28-.735.498-.211.218-.378.49-.497.809a3.078 3.078 0 0 0-.178 1.074c0 .366.048.702.142.999.096.296.237.553.42.763.184.21.414.374.684.485.27.112.582.169.926.169.312 0 .61-.057.887-.17.276-.11.523-.278.734-.496.21-.22.379-.49.498-.81.118-.316.178-.678.178-1.073a3.328 3.328 0 0 0-.143-1Zm-.697 1.877a1.632 1.632 0 0 1-.318.58 1.371 1.371 0 0 1-1.075.474c-.247 0-.465-.044-.654-.133a1.254 1.254 0 0 1-.473-.385 1.752 1.752 0 0 1-.283-.603 2.972 2.972 0 0 1-.095-.776c0-.29.037-.55.112-.781.074-.23.181-.424.318-.581.138-.156.298-.273.48-.354a1.48 1.48 0 0 1 .594-.118c.481 0 .852.169 1.113.507.262.339.393.802.393 1.39 0 .289-.038.55-.112.78Z"/></mask></svg>