<svg xmlns="http://www.w3.org/2000/svg" viewBox="0 0 24 24" width="1em" height="1em" focusable="false"><path fill-rule="evenodd" clip-rule="evenodd" d="M18.496 9.657c.06.082.236.38-.05.76-.946 1.263-2.626 4.358-3.223 6.99l-.013-.002c.144 1.179-.092 2.435-.707 3.343-.533.785-1.273 1.206-2.11 1.206a2.57 2.57 0 0 1-.3-.018c-2.408-.284-4.175-5.62-5.78-11.061l-.017-.062c-.353-1.194-.655-2.219-.823-2.54-.154-.296-.054-.575.114-.72.308-.264.76-.163 1.427.322.485.355 1.003.754 1.53 1.173l.009-.1.014-.142a.37.37 0 0 0-.005-.017h.008c.38-3.47 1.54-6.743 3.468-6.743 2.175 0 3.418 4.12 3.588 8.396.786-.423 1.53-.757 2.125-.974.283-.105.583-.03.745.189Zm-5.406 3.736a14.947 14.947 0 0 1 1.587 2.299c.592-1.766 1.477-3.531 2.242-4.786-1.138.541-2.618 1.396-3.83 2.487ZM9.485 9.781c.206.095.469.166.775.216l-.003.115c-.004.12-.007.243-.008.367-.255-.228-.51-.444-.766-.66a.46.46 0 0 1 .002-.038Zm.946-2.558a1.527 1.527 0 0 1-.582-.177 18.9 18.9 0 0 0-.26 1.599c.08.099.275.26.71.35.033-.623.078-1.216.132-1.772Zm4.084 1.707c-.177.079-.424.124-.673.146a30.814 30.814 0 0 0-.134-1.822c.173-.021.357-.06.54-.124.11.555.199 1.16.267 1.8Zm-2.42-1.462c-.244 0-.469-.028-.673-.064a41.8 41.8 0 0 0-.129 1.793c.407.079 1.004.14 1.55.013a30.617 30.617 0 0 0-.131-1.811 3.086 3.086 0 0 1-.617.069Zm-.566-1.059c.171-1.434.377-2.533.498-3.117.155.657.386 1.749.568 3.112-.366.099-.759.065-1.066.005Zm.64 3.877c-.339 0-.649-.038-.915-.083a39.49 39.49 0 0 0-.01 1.2c.411.399.805.814 1.187 1.236.116-.104.236-.204.356-.304a24.01 24.01 0 0 0 .078-2.112 4.18 4.18 0 0 1-.697.063Zm1.674 1.244c.022-.489.03-.971.025-1.445.222-.015.478-.054.731-.126.021.342.036.69.042 1.049-.268.165-.534.338-.798.522Zm-.254-5.274c.16-.02.313-.051.428-.105-.226-.84-.495-1.533-.787-2.051.12.602.248 1.329.36 2.156ZM10.853 4.1a39.717 39.717 0 0 0-.312 2.126.48.48 0 0 1-.261-.09.46.46 0 0 1-.14-.261c.21-.717.454-1.316.713-1.775Zm1.356 16.84c.717.096 1.2-.363 1.465-.756.718-1.057.785-2.798.156-3.966-1.562-2.888-4.949-5.705-7.053-7.274.143.453.307 1.01.494 1.647l.004.011c.97 3.29 2.982 10.11 4.934 10.338Z"/><mask id="a" style="mask-type:alpha" maskUnits="userSpaceOnUse" x="5" y="2" width="14" height="20"><path fill-rule="evenodd" clip-rule="evenodd" d="M18.496 9.657c.06.082.236.38-.05.76-.946 1.263-2.626 4.358-3.223 6.99l-.013-.002c.144 1.179-.092 2.435-.707 3.343-.533.785-1.273 1.206-2.11 1.206a2.57 2.57 0 0 1-.3-.018c-2.408-.284-4.175-5.62-5.78-11.061l-.017-.062c-.353-1.194-.655-2.219-.823-2.54-.154-.296-.054-.575.114-.72.308-.264.76-.163 1.427.322.485.355 1.003.754 1.53 1.173l.009-.1.014-.142a.37.37 0 0 0-.005-.017h.008c.38-3.47 1.54-6.743 3.468-6.743 2.175 0 3.418 4.12 3.588 8.396.786-.423 1.53-.757 2.125-.974.283-.105.583-.03.745.189Zm-5.406 3.736a14.947 14.947 0 0 1 1.587 2.299c.592-1.766 1.477-3.531 2.242-4.786-1.138.541-2.618 1.396-3.83 2.487ZM9.485 9.781c.206.095.469.166.775.216l-.003.115c-.004.12-.007.243-.008.367-.255-.228-.51-.444-.766-.66a.46.46 0 0 1 .002-.038Zm.946-2.558a1.527 1.527 0 0 1-.582-.177 18.9 18.9 0 0 0-.26 1.599c.08.099.275.26.71.35.033-.623.078-1.216.132-1.772Zm4.084 1.707c-.177.079-.424.124-.673.146a30.814 30.814 0 0 0-.134-1.822c.173-.021.357-.06.54-.124.11.555.199 1.16.267 1.8Zm-2.42-1.462c-.244 0-.469-.028-.673-.064a41.8 41.8 0 0 0-.129 1.793c.407.079 1.004.14 1.55.013a30.617 30.617 0 0 0-.131-1.811 3.086 3.086 0 0 1-.617.069Zm-.566-1.059c.171-1.434.377-2.533.498-3.117.155.657.386 1.749.568 3.112-.366.099-.759.065-1.066.005Zm.64 3.877c-.339 0-.649-.038-.915-.083a39.49 39.49 0 0 0-.01 1.2c.411.399.805.814 1.187 1.236.116-.104.236-.204.356-.304a24.01 24.01 0 0 0 .078-2.112 4.18 4.18 0 0 1-.697.063Zm1.674 1.244c.022-.489.03-.971.025-1.445.222-.015.478-.054.731-.126.021.342.036.69.042 1.049-.268.165-.534.338-.798.522Zm-.254-5.274c.16-.02.313-.051.428-.105-.226-.84-.495-1.533-.787-2.051.12.602.248 1.329.36 2.156ZM10.853 4.1a39.717 39.717 0 0 0-.312 2.126.48.48 0 0 1-.261-.09.46.46 0 0 1-.14-.261c.21-.717.454-1.316.713-1.775Zm1.356 16.84c.717.096 1.2-.363 1.465-.756.718-1.057.785-2.798.156-3.966-1.562-2.888-4.949-5.705-7.053-7.274.143.453.307 1.01.494 1.647l.004.011c.97 3.29 2.982 10.11 4.934 10.338Z"/></mask></svg>