<svg xmlns="http://www.w3.org/2000/svg" viewBox="0 0 24 24" width="1em" height="1em" focusable="false"><path fill-rule="evenodd" clip-rule="evenodd" d="M7.43 14.463a.867.867 0 1 1 1.735 0 .867.867 0 0 1-1.735 0ZM3 12.063c0-2.388.936-4.557 2.451-6.178l2.17 2.171c-.401.181-.771.444-1.006.76l-.857 1.151c-.337.453-.695 1.228-.695 1.773v1.723c0 .841.522 1.5 1.189 1.5h.255c.22.786.935 1.367 1.79 1.367a1.87 1.87 0 0 0 1.867-1.867 1.87 1.87 0 0 0-1.867-1.867c-.855 0-1.57.582-1.791 1.368h-.249c-.054-.016-.194-.193-.194-.551V11.74c0-.235.218-.799.498-1.175l.856-1.152c.197-.264.626-.498.992-.569l4.96 4.961a1.608 1.608 0 0 0-.048.158h-1.978v1h1.978a1.863 1.863 0 0 0 1.791 1.367c.232 0 .452-.048.657-.126l2.471 2.471a9.019 9.019 0 0 1-6.177 2.45C7.066 21.125 3 17.06 3 12.063Zm11.695 1.654a.845.845 0 0 1 .416-.121c.478 0 .867.388.867.867a.848.848 0 0 1-.12.416l-1.163-1.162Zm.144 1.558a.851.851 0 0 1-.542-.541l.542.54Zm2.065-1.312a1.865 1.865 0 0 0-1.791-1.367c-.431 0-.823.152-1.139.397l-4.181-4.18h1.605c.425 0 1.1.255 1.419.537l1.234 1.09c.479.421 1.343.846 1.968.967l1.453.282a.468.468 0 0 1 .371.566l-.249 1.123c-.078.354-.325.58-.412.585h-.278Zm4.221-1.9c0 2.25-.829 4.306-2.191 5.892l-2.354-2.353c.147-.189.256-.404.323-.639h.278c.618 0 1.216-.588 1.389-1.368l.249-1.122a1.463 1.463 0 0 0-.204-1.127 1.466 1.466 0 0 0-.955-.64l-1.453-.281c-.451-.087-1.15-.431-1.495-.735L13.478 8.6c-.499-.442-1.414-.787-2.081-.787H8.792L6.17 5.192A9.015 9.015 0 0 1 12.063 3c4.997 0 9.062 4.066 9.062 9.063ZM12.063 2C6.514 2 2 6.514 2 12.063c0 5.548 4.514 10.062 10.063 10.062s10.062-4.514 10.062-10.062C22.125 6.514 17.612 2 12.063 2Z"/><mask id="a" style="mask-type:alpha" maskUnits="userSpaceOnUse" x="2" y="2" width="21" height="21"><path fill-rule="evenodd" clip-rule="evenodd" d="M7.43 14.463a.867.867 0 1 1 1.735 0 .867.867 0 0 1-1.735 0ZM3 12.063c0-2.388.936-4.557 2.451-6.178l2.17 2.171c-.401.181-.771.444-1.006.76l-.857 1.151c-.337.453-.695 1.228-.695 1.773v1.723c0 .841.522 1.5 1.189 1.5h.255c.22.786.935 1.367 1.79 1.367a1.87 1.87 0 0 0 1.867-1.867 1.87 1.87 0 0 0-1.867-1.867c-.855 0-1.57.582-1.791 1.368h-.249c-.054-.016-.194-.193-.194-.551V11.74c0-.235.218-.799.498-1.175l.856-1.152c.197-.264.626-.498.992-.569l4.96 4.961a1.608 1.608 0 0 0-.048.158h-1.978v1h1.978a1.863 1.863 0 0 0 1.791 1.367c.232 0 .452-.048.657-.126l2.471 2.471a9.019 9.019 0 0 1-6.177 2.45C7.066 21.125 3 17.06 3 12.063Zm11.695 1.654a.845.845 0 0 1 .416-.121c.478 0 .867.388.867.867a.848.848 0 0 1-.12.416l-1.163-1.162Zm.144 1.558a.851.851 0 0 1-.542-.541l.542.54Zm2.065-1.312a1.865 1.865 0 0 0-1.791-1.367c-.431 0-.823.152-1.139.397l-4.181-4.18h1.605c.425 0 1.1.255 1.419.537l1.234 1.09c.479.421 1.343.846 1.968.967l1.453.282a.468.468 0 0 1 .371.566l-.249 1.123c-.078.354-.325.58-.412.585h-.278Zm4.221-1.9c0 2.25-.829 4.306-2.191 5.892l-2.354-2.353c.147-.189.256-.404.323-.639h.278c.618 0 1.216-.588 1.389-1.368l.249-1.122a1.463 1.463 0 0 0-.204-1.127 1.466 1.466 0 0 0-.955-.64l-1.453-.281c-.451-.087-1.15-.431-1.495-.735L13.478 8.6c-.499-.442-1.414-.787-2.081-.787H8.792L6.17 5.192A9.015 9.015 0 0 1 12.063 3c4.997 0 9.062 4.066 9.062 9.063ZM12.063 2C6.514 2 2 6.514 2 12.063c0 5.548 4.514 10.062 10.063 10.062s10.062-4.514 10.062-10.062C22.125 6.514 17.612 2 12.063 2Z"/></mask></svg>