<svg xmlns="http://www.w3.org/2000/svg" viewBox="0 0 24 24" width="1em" height="1em" focusable="false"><path fill-rule="evenodd" clip-rule="evenodd" d="M19.5 20h-15a.5.5 0 0 1-.5-.5v-15a.5.5 0 0 1 .5-.5h8v1H5v14h14v-8.5h1v9a.5.5 0 0 1-.5.5Zm-7.637-7.863h1.84l4.59-4.591-1.839-1.84-4.59 4.592v1.839Zm2.046 1h-2.546a.5.5 0 0 1-.5-.5V10.09a.5.5 0 0 1 .146-.353L16.1 4.647a.499.499 0 0 1 .707 0l2.546 2.546a.499.499 0 0 1 0 .707l-5.09 5.09a.5.5 0 0 1-.354.147Z"/><mask id="a" style="mask-type:alpha" maskUnits="userSpaceOnUse" x="4" y="4" width="16" height="16"><path fill-rule="evenodd" clip-rule="evenodd" d="M19.5 20h-15a.5.5 0 0 1-.5-.5v-15a.5.5 0 0 1 .5-.5h8v1H5v14h14v-8.5h1v9a.5.5 0 0 1-.5.5Zm-7.637-7.863h1.84l4.59-4.591-1.839-1.84-4.59 4.592v1.839Zm2.046 1h-2.546a.5.5 0 0 1-.5-.5V10.09a.5.5 0 0 1 .146-.353L16.1 4.647a.499.499 0 0 1 .707 0l2.546 2.546a.499.499 0 0 1 0 .707l-5.09 5.09a.5.5 0 0 1-.354.147Z"/></mask></svg>