<svg xmlns="http://www.w3.org/2000/svg" viewBox="0 0 24 24" width="1em" height="1em" focusable="false"><path fill-rule="evenodd" clip-rule="evenodd" d="M4 17h16V7H4v10Zm16.5 1h-17a.5.5 0 0 1-.5-.5v-11a.5.5 0 0 1 .5-.5h17a.5.5 0 0 1 .5.5v11a.5.5 0 0 1-.5.5ZM12 14.5a.498.498 0 0 1-.316-.113l-5.5-4.5.632-.774L12 13.354l5.184-4.241.632.774-5.5 4.5A.498.498 0 0 1 12 14.5Z"/><mask id="a" style="mask-type:alpha" maskUnits="userSpaceOnUse" x="3" y="6" width="18" height="12"><path fill-rule="evenodd" clip-rule="evenodd" d="M4 17h16V7H4v10Zm16.5 1h-17a.5.5 0 0 1-.5-.5v-11a.5.5 0 0 1 .5-.5h17a.5.5 0 0 1 .5.5v11a.5.5 0 0 1-.5.5ZM12 14.5a.498.498 0 0 1-.316-.113l-5.5-4.5.632-.774L12 13.354l5.184-4.241.632.774-5.5 4.5A.498.498 0 0 1 12 14.5Z"/></mask></svg>