<svg xmlns="http://www.w3.org/2000/svg" viewBox="0 0 24 24" width="1em" height="1em" focusable="false"><path fill-rule="evenodd" clip-rule="evenodd" d="M13.008 9.008h-2a.5.5 0 0 1-.5-.5v-4a2.5 2.5 0 0 1 2.5-2.5c.137-.01.274-.01.41 0a2.25 2.25 0 0 1 1.59 1.25 2.52 2.52 0 0 1 0 2.27l-1.6 3.2a.51.51 0 0 1-.4.28Zm-1.5-1h1.19l1.47-2.93a1.536 1.536 0 0 0 0-1.37 1.238 1.238 0 0 0-.9-.68l-.26-.02a1.5 1.5 0 0 0-1.5 1.5v3.5Zm-7.11 1.69c-.24 0-.477.053-.69.16a1.238 1.238 0 0 0-.68.9 2.085 2.085 0 0 0 0 .25 1.5 1.5 0 0 0 1.5 1.5h3.478v-1.19l-2.929-1.47a1.583 1.583 0 0 0-.68-.15Zm4.109 3.81h-4a2.5 2.5 0 0 1-2.5-2.5 3.116 3.116 0 0 1 0-.41 2.252 2.252 0 0 1 1.25-1.59 2.523 2.523 0 0 1 2.27 0l3.2 1.6a.507.507 0 0 1 .28.4v2a.5.5 0 0 1-.5.5Zm1.5-1.5a2 2 0 1 0 4.002-.002 2 2 0 0 0-4.001.002Zm1 0a1 1 0 1 1 2.002 0 1 1 0 0 1-2.001 0Zm.312 4-1.47 2.93a1.536 1.536 0 0 0 0 1.37c.173.358.508.61.9.68a1.529 1.529 0 0 0 1.75-1.48v-3.5h-1.18Zm-.312 6c-.134.01-.272.01-.409 0a2.254 2.254 0 0 1-1.59-1.25 2.527 2.527 0 0 1 0-2.27l1.6-3.2a.51.51 0 0 1 .4-.28h2a.5.5 0 0 1 .5.5v4a2.5 2.5 0 0 1-2.5 2.5Zm7.932-7.84-2.931-1.47v-1.18h3.48a1.5 1.5 0 0 1 1.5 1.5c.005.082.005.166 0 .25a1.24 1.24 0 0 1-.68.9 1.536 1.536 0 0 1-1.37 0Zm-.451.89c.35.174.739.263 1.13.26.4-.014.79-.12 1.14-.31a2.245 2.245 0 0 0 1.25-1.59 2.551 2.551 0 0 0 0-.41 2.5 2.5 0 0 0-2.5-2.5h-4a.5.5 0 0 0-.5.5v2a.51.51 0 0 0 .28.45l3.2 1.6Z"/><mask id="a" style="mask-type:alpha" maskUnits="userSpaceOnUse" x="2" y="2" width="21" height="21"><path fill-rule="evenodd" clip-rule="evenodd" d="M13.008 9.008h-2a.5.5 0 0 1-.5-.5v-4a2.5 2.5 0 0 1 2.5-2.5c.137-.01.274-.01.41 0a2.25 2.25 0 0 1 1.59 1.25 2.52 2.52 0 0 1 0 2.27l-1.6 3.2a.51.51 0 0 1-.4.28Zm-1.5-1h1.19l1.47-2.93a1.536 1.536 0 0 0 0-1.37 1.238 1.238 0 0 0-.9-.68l-.26-.02a1.5 1.5 0 0 0-1.5 1.5v3.5Zm-7.11 1.69c-.24 0-.477.053-.69.16a1.238 1.238 0 0 0-.68.9 2.085 2.085 0 0 0 0 .25 1.5 1.5 0 0 0 1.5 1.5h3.478v-1.19l-2.929-1.47a1.583 1.583 0 0 0-.68-.15Zm4.109 3.81h-4a2.5 2.5 0 0 1-2.5-2.5 3.116 3.116 0 0 1 0-.41 2.252 2.252 0 0 1 1.25-1.59 2.523 2.523 0 0 1 2.27 0l3.2 1.6a.507.507 0 0 1 .28.4v2a.5.5 0 0 1-.5.5Zm1.5-1.5a2 2 0 1 0 4.002-.002 2 2 0 0 0-4.001.002Zm1 0a1 1 0 1 1 2.002 0 1 1 0 0 1-2.001 0Zm.312 4-1.47 2.93a1.536 1.536 0 0 0 0 1.37c.173.358.508.61.9.68a1.529 1.529 0 0 0 1.75-1.48v-3.5h-1.18Zm-.312 6c-.134.01-.272.01-.409 0a2.254 2.254 0 0 1-1.59-1.25 2.527 2.527 0 0 1 0-2.27l1.6-3.2a.51.51 0 0 1 .4-.28h2a.5.5 0 0 1 .5.5v4a2.5 2.5 0 0 1-2.5 2.5Zm7.932-7.84-2.931-1.47v-1.18h3.48a1.5 1.5 0 0 1 1.5 1.5c.005.082.005.166 0 .25a1.24 1.24 0 0 1-.68.9 1.536 1.536 0 0 1-1.37 0Zm-.451.89c.35.174.739.263 1.13.26.4-.014.79-.12 1.14-.31a2.245 2.245 0 0 0 1.25-1.59 2.551 2.551 0 0 0 0-.41 2.5 2.5 0 0 0-2.5-2.5h-4a.5.5 0 0 0-.5.5v2a.51.51 0 0 0 .28.45l3.2 1.6Z"/></mask></svg>