<svg xmlns="http://www.w3.org/2000/svg" viewBox="0 0 24 24" width="1em" height="1em" focusable="false"><path fill-rule="evenodd" clip-rule="evenodd" d="M4.5 20h15a.5.5 0 0 0 .5-.5v-7h-1V19H5V5h8.5V4h-9a.5.5 0 0 0-.5.5v15a.5.5 0 0 0 .5.5Zm5.367-3.977h2.781v-1h-2.28V9.071h7.806l-2.418 2.64.737.674 3.038-3.314h.07v-.075l.078-.087a.499.499 0 0 0 0-.676l-.079-.087v-.075h-.069l-3.038-3.314-.737.676 2.418 2.638H9.867c-.277 0-.5.223-.5.5v6.952a.5.5 0 0 0 .5.5Z"/><mask id="a" style="mask-type:alpha" maskUnits="userSpaceOnUse" x="4" y="4" width="16" height="16"><path fill-rule="evenodd" clip-rule="evenodd" d="M4.5 20h15a.5.5 0 0 0 .5-.5v-7h-1V19H5V5h8.5V4h-9a.5.5 0 0 0-.5.5v15a.5.5 0 0 0 .5.5Zm5.367-3.977h2.781v-1h-2.28V9.071h7.806l-2.418 2.64.737.674 3.038-3.314h.07v-.075l.078-.087a.499.499 0 0 0 0-.676l-.079-.087v-.075h-.069l-3.038-3.314-.737.676 2.418 2.638H9.867c-.277 0-.5.223-.5.5v6.952a.5.5 0 0 0 .5.5Z"/></mask></svg>