<svg xmlns="http://www.w3.org/2000/svg" viewBox="0 0 24 24" width="1em" height="1em" focusable="false"><path fill-rule="evenodd" clip-rule="evenodd" d="M14.273 8.5a.511.511 0 0 1-.36-.148L9.649 4.085a.508.508 0 0 1 0-.717l1.22-1.22a.508.508 0 0 1 .717 0l4.267 4.266a.507.507 0 0 1 0 .717l-1.22 1.22a.511.511 0 0 1-.36.149Zm-3.55-4.774 3.549 3.55.502-.504-3.55-3.548-.501.502Zm7.732 15.327a.506.506 0 0 0 .713 0l1.384-1.384a.504.504 0 0 0 0-.712l-7.356-7.355.337-.336a.504.504 0 0 0 0-.712L9.326 4.347a.504.504 0 0 0-.712 0L5.846 7.116a.504.504 0 0 0 0 .712l4.206 4.205a.504.504 0 0 0 .712 0l.336-.335 7.355 7.355Zm-6.938-8.368a.503.503 0 0 0-.708.002l-.334.333L7 7.546 9.044 5.5l3.475 3.475-.334.334a.501.501 0 0 0 0 .709l7.315 7.314-.668.668-7.315-7.315Zm-3.603 3.667a.51.51 0 0 0 .717 0l1.22-1.22a.51.51 0 0 0 0-.717L5.586 8.148a.508.508 0 0 0-.717 0l-1.22 1.22a.507.507 0 0 0 0 .717l4.266 4.267Zm.36-1.076-3.55-3.55.503-.502 3.55 3.55-.504.502ZM4.5 19h9v1h-9v-1Zm8-1.5h-7v1h7v-1Z"/><mask id="a" style="mask-type:alpha" maskUnits="userSpaceOnUse" x="3" y="2" width="18" height="18"><path fill-rule="evenodd" clip-rule="evenodd" d="M14.273 8.5a.511.511 0 0 1-.36-.148L9.649 4.085a.508.508 0 0 1 0-.717l1.22-1.22a.508.508 0 0 1 .717 0l4.267 4.266a.507.507 0 0 1 0 .717l-1.22 1.22a.511.511 0 0 1-.36.149Zm-3.55-4.774 3.549 3.55.502-.504-3.55-3.548-.501.502Zm7.732 15.327a.506.506 0 0 0 .713 0l1.384-1.384a.504.504 0 0 0 0-.712l-7.356-7.355.337-.336a.504.504 0 0 0 0-.712L9.326 4.347a.504.504 0 0 0-.712 0L5.846 7.116a.504.504 0 0 0 0 .712l4.206 4.205a.504.504 0 0 0 .712 0l.336-.335 7.355 7.355Zm-6.938-8.368a.503.503 0 0 0-.708.002l-.334.333L7 7.546 9.044 5.5l3.475 3.475-.334.334a.501.501 0 0 0 0 .709l7.315 7.314-.668.668-7.315-7.315Zm-3.603 3.667a.51.51 0 0 0 .717 0l1.22-1.22a.51.51 0 0 0 0-.717L5.586 8.148a.508.508 0 0 0-.717 0l-1.22 1.22a.507.507 0 0 0 0 .717l4.266 4.267Zm.36-1.076-3.55-3.55.503-.502 3.55 3.55-.504.502ZM4.5 19h9v1h-9v-1Zm8-1.5h-7v1h7v-1Z"/></mask></svg>