<svg xmlns="http://www.w3.org/2000/svg" viewBox="0 0 24 24" width="1em" height="1em" focusable="false"><path fill-rule="evenodd" clip-rule="evenodd" d="M9.821 13.5h-1.55l-.31-.77a.5.5 0 0 0-.25-.29l-.23-.08a.464.464 0 0 0-.44 0l-.63.3-1.09-1.09.29-.59a.621.621 0 0 0 0-.5 1.318 1.318 0 0 0-.08-.17.473.473 0 0 0-.29-.26l-.79-.25V8.2l.75-.25a.51.51 0 0 0 .29-.25l.09-.23a.515.515 0 0 0 0-.45l-.3-.59 1.09-1.09.64.3a.508.508 0 0 0 .4 0l.23-.09a.538.538 0 0 0 .29-.32l.25-.79H9.8l.25.75a.513.513 0 0 0 .28.31l.23.09a.46.46 0 0 0 .41 0l.58-.29 1.09 1.13-.3.59a.63.63 0 0 0 0 .5c.022.062.048.123.08.18.058.12.162.21.29.25l.79.25v1.62l-.75.25a.54.54 0 0 0-.29.26l-.09.22a.508.508 0 0 0 0 .45l.29.59-1.08 1.09-.58-.3a.621.621 0 0 0-.5 0l-.18.07a.51.51 0 0 0-.25.29l-.25.76Zm-1.91 1h2.269a.511.511 0 0 0 .481-.3l.24-.73.559.28a.501.501 0 0 0 .581-.09l1.589-1.6a.487.487 0 0 0 .09-.57l-.279-.57.72-.24a.51.51 0 0 0 .339-.48V7.88a.5.5 0 0 0-.349-.48l-.76-.24.279-.56a.498.498 0 0 0-.08-.57L12 4.38a.538.538 0 0 0-.589-.1l-.56.29-.24-.73a.511.511 0 0 0-.47-.34h-2.28a.491.491 0 0 0-.47.35l-.25.77-.61-.3a.502.502 0 0 0-.571.1l-1.589 1.6a.498.498 0 0 0-.09.58l.28.56-.721.25a.503.503 0 0 0-.34.47v2.28c0 .22.141.414.351.48l.76.24-.29.57a.5.5 0 0 0 .099.57l1.59 1.6a.5.5 0 0 0 .571.1l.61-.29.239.73a.51.51 0 0 0 .481.34Zm8.269 2.22v1a1.5 1.5 0 1 0-1.5-1.5h1a.51.51 0 0 1 .5-.5.5.5 0 0 1 0 1Zm-.617 1.37a.513.513 0 0 1 .39.19l.679.85.68-.19.17-1.07a.49.49 0 0 1 .42-.42l1-.16.18-.72-.82-.65a.511.511 0 0 1-.15-.57l.37-.94-.56-.55-.93.37a.502.502 0 0 1-.57-.16l-.61-.76-.77.2-.15 1a.49.49 0 0 1-.42.42l-1 .16-.21.72.81.65a.52.52 0 0 1 .16.57l-.4 1 .49.49 1-.4a.514.514 0 0 1 .24-.03Zm.889 2.11a.51.51 0 0 1-.39-.19l-.66-.82-1 .38a.489.489 0 0 1-.54-.11l-.941-1a.492.492 0 0 1-.11-.53l.38-1-.78-.63a.489.489 0 0 1-.17-.53l.39-1.35a.5.5 0 0 1 .4-.35l1-.15.14-.94c.03-.199.176-.36.37-.41l1.39-.36a.49.49 0 0 1 .52.17l.59.73.89-.34a.488.488 0 0 1 .53.1l1 1a.49.49 0 0 1 .12.54l-.35.91.77.62a.475.475 0 0 1 .17.51l-.34 1.35a.501.501 0 0 1-.4.38l-1 .15-.16 1a.49.49 0 0 1-.36.4l-1.33.47h-.13ZM8.98 10.08v1A2.08 2.08 0 1 0 6.9 9h1a1.08 1.08 0 1 1 1.08 1.08Z"/><mask id="a" style="mask-type:alpha" maskUnits="userSpaceOnUse" x="3" y="3" width="18" height="18"><path fill-rule="evenodd" clip-rule="evenodd" d="M9.821 13.5h-1.55l-.31-.77a.5.5 0 0 0-.25-.29l-.23-.08a.464.464 0 0 0-.44 0l-.63.3-1.09-1.09.29-.59a.621.621 0 0 0 0-.5 1.318 1.318 0 0 0-.08-.17.473.473 0 0 0-.29-.26l-.79-.25V8.2l.75-.25a.51.51 0 0 0 .29-.25l.09-.23a.515.515 0 0 0 0-.45l-.3-.59 1.09-1.09.64.3a.508.508 0 0 0 .4 0l.23-.09a.538.538 0 0 0 .29-.32l.25-.79H9.8l.25.75a.513.513 0 0 0 .28.31l.23.09a.46.46 0 0 0 .41 0l.58-.29 1.09 1.13-.3.59a.63.63 0 0 0 0 .5c.022.062.048.123.08.18.058.12.162.21.29.25l.79.25v1.62l-.75.25a.54.54 0 0 0-.29.26l-.09.22a.508.508 0 0 0 0 .45l.29.59-1.08 1.09-.58-.3a.621.621 0 0 0-.5 0l-.18.07a.51.51 0 0 0-.25.29l-.25.76Zm-1.91 1h2.269a.511.511 0 0 0 .481-.3l.24-.73.559.28a.501.501 0 0 0 .581-.09l1.589-1.6a.487.487 0 0 0 .09-.57l-.279-.57.72-.24a.51.51 0 0 0 .339-.48V7.88a.5.5 0 0 0-.349-.48l-.76-.24.279-.56a.498.498 0 0 0-.08-.57L12 4.38a.538.538 0 0 0-.589-.1l-.56.29-.24-.73a.511.511 0 0 0-.47-.34h-2.28a.491.491 0 0 0-.47.35l-.25.77-.61-.3a.502.502 0 0 0-.571.1l-1.589 1.6a.498.498 0 0 0-.09.58l.28.56-.721.25a.503.503 0 0 0-.34.47v2.28c0 .22.141.414.351.48l.76.24-.29.57a.5.5 0 0 0 .099.57l1.59 1.6a.5.5 0 0 0 .571.1l.61-.29.239.73a.51.51 0 0 0 .481.34Zm8.269 2.22v1a1.5 1.5 0 1 0-1.5-1.5h1a.51.51 0 0 1 .5-.5.5.5 0 0 1 0 1Zm-.617 1.37a.513.513 0 0 1 .39.19l.679.85.68-.19.17-1.07a.49.49 0 0 1 .42-.42l1-.16.18-.72-.82-.65a.511.511 0 0 1-.15-.57l.37-.94-.56-.55-.93.37a.502.502 0 0 1-.57-.16l-.61-.76-.77.2-.15 1a.49.49 0 0 1-.42.42l-1 .16-.21.72.81.65a.52.52 0 0 1 .16.57l-.4 1 .49.49 1-.4a.514.514 0 0 1 .24-.03Zm.889 2.11a.51.51 0 0 1-.39-.19l-.66-.82-1 .38a.489.489 0 0 1-.54-.11l-.941-1a.492.492 0 0 1-.11-.53l.38-1-.78-.63a.489.489 0 0 1-.17-.53l.39-1.35a.5.5 0 0 1 .4-.35l1-.15.14-.94c.03-.199.176-.36.37-.41l1.39-.36a.49.49 0 0 1 .52.17l.59.73.89-.34a.488.488 0 0 1 .53.1l1 1a.49.49 0 0 1 .12.54l-.35.91.77.62a.475.475 0 0 1 .17.51l-.34 1.35a.501.501 0 0 1-.4.38l-1 .15-.16 1a.49.49 0 0 1-.36.4l-1.33.47h-.13ZM8.98 10.08v1A2.08 2.08 0 1 0 6.9 9h1a1.08 1.08 0 1 1 1.08 1.08Z"/></mask></svg>