<svg xmlns="http://www.w3.org/2000/svg" viewBox="0 0 24 24" width="1em" height="1em" focusable="false"><path fill-rule="evenodd" clip-rule="evenodd" d="m19.676 12.273.487.883.875-.482-3.957-7.175 1.944-1.073-.482-.875-2.821 1.556.778 1.41c-.91.51-1.838 1.02-2.031 1.074-.001 0-1.16-.278-1.276-.311-.146-.041-.351-.05-.727.196l-1.755.968.01-.021L7.65 6.807l.687-1.25-2.823-1.551-.48.877L6.979 5.95l-4.016 7.31.877.48.524-.954.364.204c.139.075.249.148.348.218l-.442.244a1.36 1.36 0 0 0-.655.822 1.36 1.36 0 0 0 .116 1.044c.177.321.469.554.822.656.027.008.054.01.081.013a.622.622 0 0 1 .055.007c-.01.248.022.493.145.717.223.402.623.64 1.05.689a1.34 1.34 0 0 0 .148.677 1.365 1.365 0 0 0 1.186.707c.017.18.069.355.159.517.245.445.715.694 1.208.694.24 0 .487-.06.716-.186l1.735-.96 2.603 1.43a1.38 1.38 0 0 0 1.867-.544 1.37 1.37 0 0 0 .163-.585c.456-.029.89-.273 1.127-.703.109-.198.147-.416.15-.637.018-.003.037-.004.056-.006a.977.977 0 0 0 .184-.03 1.366 1.366 0 0 0 .936-1.703 1.053 1.053 0 0 0-.13-.26l-.033-.053a1.3 1.3 0 0 0 .41-.438 1.33 1.33 0 0 0 .094-1.072c-.095-.286-.291-.516-.532-.696.18-.402.834-.921 1.38-1.28Zm-6.697-3.94c.018-.012.044-.026.069-.04l.022-.013c.352.087 1.166.283 1.168.283.062.016.385.08.693-.047.159-.065 1.312-.71 2.052-1.125l2.208 4.002c-.52.334-1.385.97-1.746 1.646l-1.834-1.02a5.77 5.77 0 0 0 .969-.434l-.515-.857c-.014.01-1.388.816-2.604.507-.546-.14-.973-.481-1.304-1.045l-.246-.42-2.23 1.232-.013.007c-.02.01-.057.028-.075.034-.404.079-.715-.034-.925-.332l4.31-2.377Zm-7.31 5.688-.554.306a.378.378 0 0 0-.146.508.37.37 0 0 0 .225.178c.097.03.198.018.285-.03l.418-.23a5.811 5.811 0 0 1-.168-.524 7.04 7.04 0 0 0-.06-.207Zm.404 2.208a.37.37 0 0 1-.03-.286.369.369 0 0 1 .178-.225v-.001l.144-.08c.166.235.337.429.499.584l-.28.155a.383.383 0 0 1-.511-.147ZM7.24 17.31a.365.365 0 0 0 .03.284.362.362 0 0 0 .225.178c.097.03.198.018.285-.03l.449-.252a.36.36 0 0 0 .048-.04c.018-.018.036-.035.059-.047l.012.02.224-.125-.798-.439-.368.204.012.021a.369.369 0 0 0-.178.226Zm1.94 1.623c-.206.114-.468.063-.566-.114a.356.356 0 0 1-.02-.279.465.465 0 0 1 .112-.172l.896-.503.747.41-1.169.659Zm8.09-2.117a.366.366 0 0 0 .253-.464.374.374 0 0 0-.178-.224l-4.002-2.198-.83-.456.48-.877.832.457v-.001l3.465 1.904c.113.063.242.08.356.044a.34.34 0 0 0 .209-.16.347.347 0 0 0 .02-.278.475.475 0 0 0-.224-.264l-3.532-1.966.019-.034c-.015 0-.03 0-.045.002a3.407 3.407 0 0 1-.876-.098c-.661-.167-1.213-.538-1.65-1.103l-1.43.789a1.554 1.554 0 0 1-.355.135c-.821.156-1.83-.123-2.243-1.365l-.132-.395 2.279-1.257-2.52-1.326-2.321 4.228.367.205c1.146.63 1.316 1.25 1.479 1.852l.01.036c.049.177.101.368.196.577.41.902 1.103 1.266 1.11 1.269l6.475 3.556a.375.375 0 0 0 .51-.148.375.375 0 0 0 .029-.285.373.373 0 0 0-.177-.223l-3.555-1.953-.447-.246.482-.877 4 2.198.004.002.445.244a.375.375 0 0 0 .51-.148.38.38 0 0 0-.148-.51l-4.002-2.197-.446-.245.48-.877.448.246v-.001l4 2.198h.002l.368.203c.088.05.189.057.285.03Z"/><mask id="a" style="mask-type:alpha" maskUnits="userSpaceOnUse" x="2" y="3" width="20" height="18"><path fill-rule="evenodd" clip-rule="evenodd" d="m19.676 12.273.487.883.875-.482-3.957-7.175 1.944-1.073-.482-.875-2.821 1.556.778 1.41c-.91.51-1.838 1.02-2.031 1.074-.001 0-1.16-.278-1.276-.311-.146-.041-.351-.05-.727.196l-1.755.968.01-.021L7.65 6.807l.687-1.25-2.823-1.551-.48.877L6.979 5.95l-4.016 7.31.877.48.524-.954.364.204c.139.075.249.148.348.218l-.442.244a1.36 1.36 0 0 0-.655.822 1.36 1.36 0 0 0 .116 1.044c.177.321.469.554.822.656.027.008.054.01.081.013a.622.622 0 0 1 .055.007c-.01.248.022.493.145.717.223.402.623.64 1.05.689a1.34 1.34 0 0 0 .148.677 1.365 1.365 0 0 0 1.186.707c.017.18.069.355.159.517.245.445.715.694 1.208.694.24 0 .487-.06.716-.186l1.735-.96 2.603 1.43a1.38 1.38 0 0 0 1.867-.544 1.37 1.37 0 0 0 .163-.585c.456-.029.89-.273 1.127-.703.109-.198.147-.416.15-.637.018-.003.037-.004.056-.006a.977.977 0 0 0 .184-.03 1.366 1.366 0 0 0 .936-1.703 1.053 1.053 0 0 0-.13-.26l-.033-.053a1.3 1.3 0 0 0 .41-.438 1.33 1.33 0 0 0 .094-1.072c-.095-.286-.291-.516-.532-.696.18-.402.834-.921 1.38-1.28Zm-6.697-3.94c.018-.012.044-.026.069-.04l.022-.013c.352.087 1.166.283 1.168.283.062.016.385.08.693-.047.159-.065 1.312-.71 2.052-1.125l2.208 4.002c-.52.334-1.385.97-1.746 1.646l-1.834-1.02a5.77 5.77 0 0 0 .969-.434l-.515-.857c-.014.01-1.388.816-2.604.507-.546-.14-.973-.481-1.304-1.045l-.246-.42-2.23 1.232-.013.007c-.02.01-.057.028-.075.034-.404.079-.715-.034-.925-.332l4.31-2.377Zm-7.31 5.688-.554.306a.378.378 0 0 0-.146.508.37.37 0 0 0 .225.178c.097.03.198.018.285-.03l.418-.23a5.811 5.811 0 0 1-.168-.524 7.04 7.04 0 0 0-.06-.207Zm.404 2.208a.37.37 0 0 1-.03-.286.369.369 0 0 1 .178-.225v-.001l.144-.08c.166.235.337.429.499.584l-.28.155a.383.383 0 0 1-.511-.147ZM7.24 17.31a.365.365 0 0 0 .03.284.362.362 0 0 0 .225.178c.097.03.198.018.285-.03l.449-.252a.36.36 0 0 0 .048-.04c.018-.018.036-.035.059-.047l.012.02.224-.125-.798-.439-.368.204.012.021a.369.369 0 0 0-.178.226Zm1.94 1.623c-.206.114-.468.063-.566-.114a.356.356 0 0 1-.02-.279.465.465 0 0 1 .112-.172l.896-.503.747.41-1.169.659Zm8.09-2.117a.366.366 0 0 0 .253-.464.374.374 0 0 0-.178-.224l-4.002-2.198-.83-.456.48-.877.832.457v-.001l3.465 1.904c.113.063.242.08.356.044a.34.34 0 0 0 .209-.16.347.347 0 0 0 .02-.278.475.475 0 0 0-.224-.264l-3.532-1.966.019-.034c-.015 0-.03 0-.045.002a3.407 3.407 0 0 1-.876-.098c-.661-.167-1.213-.538-1.65-1.103l-1.43.789a1.554 1.554 0 0 1-.355.135c-.821.156-1.83-.123-2.243-1.365l-.132-.395 2.279-1.257-2.52-1.326-2.321 4.228.367.205c1.146.63 1.316 1.25 1.479 1.852l.01.036c.049.177.101.368.196.577.41.902 1.103 1.266 1.11 1.269l6.475 3.556a.375.375 0 0 0 .51-.148.375.375 0 0 0 .029-.285.373.373 0 0 0-.177-.223l-3.555-1.953-.447-.246.482-.877 4 2.198.004.002.445.244a.375.375 0 0 0 .51-.148.38.38 0 0 0-.148-.51l-4.002-2.197-.446-.245.48-.877.448.246v-.001l4 2.198h.002l.368.203c.088.05.189.057.285.03Z"/></mask></svg>