<svg xmlns="http://www.w3.org/2000/svg" viewBox="0 0 24 24" width="1em" height="1em" focusable="false"><path fill-rule="evenodd" clip-rule="evenodd" d="M18.626 4c1.172 0 2.126.953 2.126 2.126a2.129 2.129 0 0 1-2.126 2.126A2.129 2.129 0 0 1 16.5 6.126C16.5 4.953 17.454 4 18.626 4ZM3 7h12.5V6h-13a.5.5 0 0 0-.5.5v11a.5.5 0 0 0 .5.5h17a.5.5 0 0 0 .5-.5V9.25h-1V17H3V7Zm13.816 2.846-.632-.774L11 13.313 5.816 9.072l-.632.774 5.5 4.5a.498.498 0 0 0 .632 0l5.5-4.5Zm.684-3.72a1.127 1.127 0 0 1 2.252 0c0 .62-.505 1.126-1.126 1.126A1.128 1.128 0 0 1 17.5 6.126Z"/><mask id="a" style="mask-type:alpha" maskUnits="userSpaceOnUse" x="2" y="4" width="19" height="14"><path fill-rule="evenodd" clip-rule="evenodd" d="M18.626 4c1.172 0 2.126.953 2.126 2.126a2.129 2.129 0 0 1-2.126 2.126A2.129 2.129 0 0 1 16.5 6.126C16.5 4.953 17.454 4 18.626 4ZM3 7h12.5V6h-13a.5.5 0 0 0-.5.5v11a.5.5 0 0 0 .5.5h17a.5.5 0 0 0 .5-.5V9.25h-1V17H3V7Zm13.816 2.846-.632-.774L11 13.313 5.816 9.072l-.632.774 5.5 4.5a.498.498 0 0 0 .632 0l5.5-4.5Zm.684-3.72a1.127 1.127 0 0 1 2.252 0c0 .62-.505 1.126-1.126 1.126A1.128 1.128 0 0 1 17.5 6.126Z"/></mask></svg>