<svg xmlns="http://www.w3.org/2000/svg" viewBox="0 0 24 24" width="1em" height="1em" focusable="false"><path fill-rule="evenodd" clip-rule="evenodd" d="M17.081 17c-2.007 0-3.787-1.239-4.537-3.12H8.966a.5.5 0 0 1-.354-.149l-.646-.656-.633.653a.494.494 0 0 1-.706.01l-.68-.67-.653.663a.497.497 0 0 1-.355.149c-.04-.014-.078-.025-.115-.035-.094-.026-.178-.05-.245-.12l-.636-.666-.722.658a.5.5 0 0 1-.335.13h-.385a.506.506 0 0 1-.501-.51V10.63c0-.282.225-.51.501-.51h10.043C13.294 8.24 15.074 7 17.08 7 19.793 7 22 9.243 22 12s-2.207 5-4.919 5Zm-7.908-4.138h3.721c.218 0 .41.143.477.354.526 1.654 2.017 2.766 3.71 2.766 2.16 0 3.917-1.786 3.917-3.98 0-2.196-1.757-3.982-3.917-3.982-1.693 0-3.184 1.112-3.71 2.767a.502.502 0 0 1-.477.353H3.002v1.41l.63-.574a.493.493 0 0 1 .695.024l.617.647.643-.653a.496.496 0 0 1 .703-.006l.677.667.638-.658a.5.5 0 0 1 .355-.152h.002c.133 0 .26.054.355.149l.856.868ZM18 14c-1.103 0-2-.898-2-2 0-1.102.898-2 2-2 1.102 0 2 .898 2 2 0 1.102-.898 2-2 2Zm0-3a1 1 0 1 0 .001 2.001A1 1 0 0 0 18 11Z"/><mask id="a" style="mask-type:alpha" maskUnits="userSpaceOnUse" x="2" y="7" width="20" height="10"><path fill-rule="evenodd" clip-rule="evenodd" d="M17.081 17c-2.007 0-3.787-1.239-4.537-3.12H8.966a.5.5 0 0 1-.354-.149l-.646-.656-.633.653a.494.494 0 0 1-.706.01l-.68-.67-.653.663a.497.497 0 0 1-.355.149c-.04-.014-.078-.025-.115-.035-.094-.026-.178-.05-.245-.12l-.636-.666-.722.658a.5.5 0 0 1-.335.13h-.385a.506.506 0 0 1-.501-.51V10.63c0-.282.225-.51.501-.51h10.043C13.294 8.24 15.074 7 17.08 7 19.793 7 22 9.243 22 12s-2.207 5-4.919 5Zm-7.908-4.138h3.721c.218 0 .41.143.477.354.526 1.654 2.017 2.766 3.71 2.766 2.16 0 3.917-1.786 3.917-3.98 0-2.196-1.757-3.982-3.917-3.982-1.693 0-3.184 1.112-3.71 2.767a.502.502 0 0 1-.477.353H3.002v1.41l.63-.574a.493.493 0 0 1 .695.024l.617.647.643-.653a.496.496 0 0 1 .703-.006l.677.667.638-.658a.5.5 0 0 1 .355-.152h.002c.133 0 .26.054.355.149l.856.868ZM18 14c-1.103 0-2-.898-2-2 0-1.102.898-2 2-2 1.102 0 2 .898 2 2 0 1.102-.898 2-2 2Zm0-3a1 1 0 1 0 .001 2.001A1 1 0 0 0 18 11Z"/></mask></svg>