<svg xmlns="http://www.w3.org/2000/svg" viewBox="0 0 24 24" width="1em" height="1em" focusable="false"><path fill-rule="evenodd" clip-rule="evenodd" d="M11.707 18h.586l.853-.854A.504.504 0 0 1 13.5 17H19V6h-5.293l-.854.854A.5.5 0 0 1 12.5 7h-1a.504.504 0 0 1-.354-.146L10.293 6H5v11h5.5a.5.5 0 0 1 .353.146l.854.854Zm.793 1h-1a.504.504 0 0 1-.354-.146L10.293 18H4.5a.5.5 0 0 1-.5-.5v-12a.5.5 0 0 1 .5-.5h6a.5.5 0 0 1 .353.146l.854.854h.586l.853-.854A.504.504 0 0 1 13.5 5h6a.5.5 0 0 1 .5.5v12a.5.5 0 0 1-.5.5h-5.793l-.854.854A.5.5 0 0 1 12.5 19ZM7 9h4V8H7v1Zm0 3h4v-1H7v1Zm0 3h4v-1H7v1Zm6-6h4V8h-4v1Zm0 3h4v-1h-4v1Zm0 3h4v-1h-4v1Z"/><mask id="a" style="mask-type:alpha" maskUnits="userSpaceOnUse" x="4" y="5" width="16" height="14"><path fill-rule="evenodd" clip-rule="evenodd" d="M11.707 18h.586l.853-.854A.504.504 0 0 1 13.5 17H19V6h-5.293l-.854.854A.5.5 0 0 1 12.5 7h-1a.504.504 0 0 1-.354-.146L10.293 6H5v11h5.5a.5.5 0 0 1 .353.146l.854.854Zm.793 1h-1a.504.504 0 0 1-.354-.146L10.293 18H4.5a.5.5 0 0 1-.5-.5v-12a.5.5 0 0 1 .5-.5h6a.5.5 0 0 1 .353.146l.854.854h.586l.853-.854A.504.504 0 0 1 13.5 5h6a.5.5 0 0 1 .5.5v12a.5.5 0 0 1-.5.5h-5.793l-.854.854A.5.5 0 0 1 12.5 19ZM7 9h4V8H7v1Zm0 3h4v-1H7v1Zm0 3h4v-1H7v1Zm6-6h4V8h-4v1Zm0 3h4v-1h-4v1Zm0 3h4v-1h-4v1Z"/></mask></svg>