<svg xmlns="http://www.w3.org/2000/svg" viewBox="0 0 24 24" width="1em" height="1em" focusable="false"><path fill-rule="evenodd" clip-rule="evenodd" d="M5.987 8H5v1h.987V8ZM20 8H7.369v1h12.632V8Zm0 4H7.369v1h12.632v-1ZM7.369 16h12.632v1H7.369v-1ZM5 12h.987v1H5v-1Zm.987 4H5v1h.987v-1Z"/><mask id="a" style="mask-type:alpha" maskUnits="userSpaceOnUse" x="5" y="8" width="15" height="9"><path fill-rule="evenodd" clip-rule="evenodd" d="M5.987 8H5v1h.987V8ZM20 8H7.369v1h12.632V8Zm0 4H7.369v1h12.632v-1ZM7.369 16h12.632v1H7.369v-1ZM5 12h.987v1H5v-1Zm.987 4H5v1h.987v-1Z"/></mask></svg>