<svg xmlns="http://www.w3.org/2000/svg" viewBox="0 0 24 24" width="1em" height="1em" focusable="false"><path fill-rule="evenodd" clip-rule="evenodd" d="m20.823 6.712-3.535-3.536a.5.5 0 0 0-.707 0L3.176 16.581a.5.5 0 0 0 0 .707l3.536 3.536a.498.498 0 0 0 .708 0L20.823 7.419a.499.499 0 0 0 0-.707ZM7.066 19.764l-2.829-2.829.678-.678 1.414 1.415.707-.707-1.414-1.415.707-.707 2.151 2.151.707-.707-2.15-2.15.706-.708 1.444 1.444.707-.707-1.444-1.444.707-.707 2.181 2.181.707-.707-2.18-2.18.707-.709 1.415 1.415.707-.707-1.415-1.415.737-.737 2.151 2.151.707-.707-2.15-2.15.706-.708 1.444 1.444.707-.707-1.444-1.444 2.8-2.799 2.828 2.83L7.065 19.763Zm9.78-11.943a.668.668 0 1 0 0-1.336.668.668 0 0 0 0 1.336Z"/><mask id="a" style="mask-type:alpha" maskUnits="userSpaceOnUse" x="3" y="3" width="18" height="18"><path fill-rule="evenodd" clip-rule="evenodd" d="m20.823 6.712-3.535-3.536a.5.5 0 0 0-.707 0L3.176 16.581a.5.5 0 0 0 0 .707l3.536 3.536a.498.498 0 0 0 .708 0L20.823 7.419a.499.499 0 0 0 0-.707ZM7.066 19.764l-2.829-2.829.678-.678 1.414 1.415.707-.707-1.414-1.415.707-.707 2.151 2.151.707-.707-2.15-2.15.706-.708 1.444 1.444.707-.707-1.444-1.444.707-.707 2.181 2.181.707-.707-2.18-2.18.707-.709 1.415 1.415.707-.707-1.415-1.415.737-.737 2.151 2.151.707-.707-2.15-2.15.706-.708 1.444 1.444.707-.707-1.444-1.444 2.8-2.799 2.828 2.83L7.065 19.763Zm9.78-11.943a.668.668 0 1 0 0-1.336.668.668 0 0 0 0 1.336Z"/></mask></svg>