<svg xmlns="http://www.w3.org/2000/svg" viewBox="0 0 24 24" width="1em" height="1em" focusable="false"><path fill-rule="evenodd" clip-rule="evenodd" d="M7 7h13v1H7V7Zm11 3H7v1h11v-1ZM6 16H5v1h1v-1Zm14-3H7v1h13v-1ZM7 16h13v1H7v-1ZM6 7H5v1h1V7Zm-1 3h1v1H5v-1Zm1 3H5v1h1v-1Z"/><mask id="a" style="mask-type:alpha" maskUnits="userSpaceOnUse" x="5" y="7" width="15" height="10"><path fill-rule="evenodd" clip-rule="evenodd" d="M7 7h13v1H7V7Zm11 3H7v1h11v-1ZM6 16H5v1h1v-1Zm14-3H7v1h13v-1ZM7 16h13v1H7v-1ZM6 7H5v1h1V7Zm-1 3h1v1H5v-1Zm1 3H5v1h1v-1Z"/></mask></svg>