<svg xmlns="http://www.w3.org/2000/svg" viewBox="0 0 24 24" width="1em" height="1em" focusable="false"><path fill-rule="evenodd" clip-rule="evenodd" d="m17.916 4.147 1.986 2.084c.137.18.13.431-.02.602L9.226 17.595a.735.735 0 0 1-.184.116l-3.39 1.26a.474.474 0 0 1-.504-.116.466.466 0 0 1-.117-.504l1.26-3.394a.734.734 0 0 1 .194-.145L17.238 4.147a.465.465 0 0 1 .678 0Zm-1.754 3.781.669.67 2.054-2.076-1.357-1.347L7.19 15.452l-.852 2.298 2.296-.854 7.509-7.61-.66-.67.68-.688Z"/><mask id="a" style="mask-type:alpha" maskUnits="userSpaceOnUse" x="5" y="4" width="15" height="15"><path fill-rule="evenodd" clip-rule="evenodd" d="m17.916 4.147 1.986 2.084c.137.18.13.431-.02.602L9.226 17.595a.735.735 0 0 1-.184.116l-3.39 1.26a.474.474 0 0 1-.504-.116.466.466 0 0 1-.117-.504l1.26-3.394a.734.734 0 0 1 .194-.145L17.238 4.147a.465.465 0 0 1 .678 0Zm-1.754 3.781.669.67 2.054-2.076-1.357-1.347L7.19 15.452l-.852 2.298 2.296-.854 7.509-7.61-.66-.67.68-.688Z"/></mask></svg>