<svg xmlns="http://www.w3.org/2000/svg" viewBox="0 0 24 24" width="1em" height="1em" focusable="false"><path fill-rule="evenodd" clip-rule="evenodd" d="M9.065 11.687c.13 0 .258.051.354.146l7.748 7.75 1.414-1.416-7.748-7.749a.5.5 0 0 1-.108-.548 3.484 3.484 0 0 0-.747-3.84 3.495 3.495 0 0 0-3.094-.974l2.151 2.152a.5.5 0 0 1 0 .707l-2.12 2.121a.5.5 0 0 1-.708 0l-2.15-2.15a3.483 3.483 0 0 0 .971 3.092 3.492 3.492 0 0 0 3.842.75.497.497 0 0 1 .195-.04Zm8.103 9.102a.5.5 0 0 1-.354-.147L8.94 12.768a4.474 4.474 0 0 1-4.62-1.083 4.48 4.48 0 0 1-.96-4.939.496.496 0 0 1 .813-.159L6.56 8.975l1.414-1.414-2.386-2.387a.5.5 0 0 1 .159-.813 4.477 4.477 0 0 1 4.938.961 4.48 4.48 0 0 1 1.083 4.618l7.873 7.874a.5.5 0 0 1 0 .707l-2.121 2.121a.5.5 0 0 1-.353.147Zm1.967-6.164-.967-.258a7.083 7.083 0 0 0-.333-4.61l-.53 1.014-.887-.464 1.05-2.004a.503.503 0 0 1 .663-.217l2.045 1.002-.439.898-.909-.445a8.103 8.103 0 0 1 .307 5.085Zm-7.69 5.935c-3.376 0-6.396-2.155-7.513-5.36l.943-.33c.979 2.805 3.618 4.69 6.57 4.69.627 0 1.249-.084 1.849-.25l.268.962a7.924 7.924 0 0 1-2.117.288Z"/><mask id="a" style="mask-type:alpha" maskUnits="userSpaceOnUse" x="3" y="4" width="18" height="17"><path fill-rule="evenodd" clip-rule="evenodd" d="M9.065 11.687c.13 0 .258.051.354.146l7.748 7.75 1.414-1.416-7.748-7.749a.5.5 0 0 1-.108-.548 3.484 3.484 0 0 0-.747-3.84 3.495 3.495 0 0 0-3.094-.974l2.151 2.152a.5.5 0 0 1 0 .707l-2.12 2.121a.5.5 0 0 1-.708 0l-2.15-2.15a3.483 3.483 0 0 0 .971 3.092 3.492 3.492 0 0 0 3.842.75.497.497 0 0 1 .195-.04Zm8.103 9.102a.5.5 0 0 1-.354-.147L8.94 12.768a4.474 4.474 0 0 1-4.62-1.083 4.48 4.48 0 0 1-.96-4.939.496.496 0 0 1 .813-.159L6.56 8.975l1.414-1.414-2.386-2.387a.5.5 0 0 1 .159-.813 4.477 4.477 0 0 1 4.938.961 4.48 4.48 0 0 1 1.083 4.618l7.873 7.874a.5.5 0 0 1 0 .707l-2.121 2.121a.5.5 0 0 1-.353.147Zm1.967-6.164-.967-.258a7.083 7.083 0 0 0-.333-4.61l-.53 1.014-.887-.464 1.05-2.004a.503.503 0 0 1 .663-.217l2.045 1.002-.439.898-.909-.445a8.103 8.103 0 0 1 .307 5.085Zm-7.69 5.935c-3.376 0-6.396-2.155-7.513-5.36l.943-.33c.979 2.805 3.618 4.69 6.57 4.69.627 0 1.249-.084 1.849-.25l.268.962a7.924 7.924 0 0 1-2.117.288Z"/></mask></svg>