<svg xmlns="http://www.w3.org/2000/svg" viewBox="0 0 24 24" width="1em" height="1em" focusable="false"><path fill-rule="evenodd" clip-rule="evenodd" d="M11.711 21.811c.096.12.241.189.394.189h.002a.503.503 0 0 0 .395-.193l7.39-9.415a.498.498 0 0 0 .002-.615l-7.432-9.582A.504.504 0 0 0 12.066 2h-.003c-.154 0-.3.07-.395.19l-7.559 9.498a.498.498 0 0 0 .001.625l7.601 9.498Zm.39-.811L5 11.997 12.057 3 19 12.082 12.1 21Z"/><mask id="a" style="mask-type:alpha" maskUnits="userSpaceOnUse" x="4" y="2" width="16" height="20"><path fill-rule="evenodd" clip-rule="evenodd" d="M11.711 21.811c.096.12.241.189.394.189h.002a.503.503 0 0 0 .395-.193l7.39-9.415a.498.498 0 0 0 .002-.615l-7.432-9.582A.504.504 0 0 0 12.066 2h-.003c-.154 0-.3.07-.395.19l-7.559 9.498a.498.498 0 0 0 .001.625l7.601 9.498Zm.39-.811L5 11.997 12.057 3 19 12.082 12.1 21Z"/></mask></svg>