<svg xmlns="http://www.w3.org/2000/svg" viewBox="0 0 24 24" width="1em" height="1em" focusable="false"><path fill-rule="evenodd" clip-rule="evenodd" d="M9 5h7.25L19 8.667V19h-2v-4.5a.505.505 0 0 0-.146-.354A.505.505 0 0 0 16.5 14h-9a.505.505 0 0 0-.354.146A.505.505 0 0 0 7 14.5V19H5V5h3v3.5c0 .132.053.26.146.354A.505.505 0 0 0 8.5 9H15V8H9V5Zm7 10v4H8v-4h8ZM4 4.5v15c0 .132.053.26.146.354A.505.505 0 0 0 4.5 20h15c.132 0 .26-.053.354-.146A.505.505 0 0 0 20 19.5v-11a.499.499 0 0 0-.1-.3l-3-4a.5.5 0 0 0-.4-.2h-12a.505.505 0 0 0-.354.146A.505.505 0 0 0 4 4.5Z"/><mask id="a" style="mask-type:alpha" maskUnits="userSpaceOnUse" x="4" y="4" width="16" height="16"><path fill-rule="evenodd" clip-rule="evenodd" d="M9 5h7.25L19 8.667V19h-2v-4.5a.505.505 0 0 0-.146-.354A.505.505 0 0 0 16.5 14h-9a.505.505 0 0 0-.354.146A.505.505 0 0 0 7 14.5V19H5V5h3v3.5c0 .132.053.26.146.354A.505.505 0 0 0 8.5 9H15V8H9V5Zm7 10v4H8v-4h8ZM4 4.5v15c0 .132.053.26.146.354A.505.505 0 0 0 4.5 20h15c.132 0 .26-.053.354-.146A.505.505 0 0 0 20 19.5v-11a.499.499 0 0 0-.1-.3l-3-4a.5.5 0 0 0-.4-.2h-12a.505.505 0 0 0-.354.146A.505.505 0 0 0 4 4.5Z"/></mask></svg>