<svg xmlns="http://www.w3.org/2000/svg" viewBox="0 0 24 24" width="1em" height="1em" focusable="false"><path fill-rule="evenodd" clip-rule="evenodd" d="m11.089 13.623-.78-.78 7.682-7.618.762.745-7.664 7.653Zm.788 2.234-3.03 3.024-3.42-.388-.382-3.42 3.03-3.024 1.04 1.042 1.608 1.61.005.005 1.149 1.151Zm8.111-9.894a.505.505 0 0 0-.153-.361l-1.49-1.458a.513.513 0 0 0-.716.002l-8.042 7.973-1.15-1.152a.511.511 0 0 0-.36-.15h-.002a.51.51 0 0 0-.36.15L4.15 14.525a.51.51 0 0 0-.147.417l.454 4.069a.513.513 0 0 0 .45.451l4.068.461a.509.509 0 0 0 .418-.147l3.565-3.557a.508.508 0 0 0 0-.722l-1.149-1.151 8.03-8.019a.505.505 0 0 0 .15-.364Z"/><mask id="a" style="mask-type:alpha" maskUnits="userSpaceOnUse" x="4" y="3" width="16" height="17"><path fill-rule="evenodd" clip-rule="evenodd" d="m11.089 13.623-.78-.78 7.682-7.618.762.745-7.664 7.653Zm.788 2.234-3.03 3.024-3.42-.388-.382-3.42 3.03-3.024 1.04 1.042 1.608 1.61.005.005 1.149 1.151Zm8.111-9.894a.505.505 0 0 0-.153-.361l-1.49-1.458a.513.513 0 0 0-.716.002l-8.042 7.973-1.15-1.152a.511.511 0 0 0-.36-.15h-.002a.51.51 0 0 0-.36.15L4.15 14.525a.51.51 0 0 0-.147.417l.454 4.069a.513.513 0 0 0 .45.451l4.068.461a.509.509 0 0 0 .418-.147l3.565-3.557a.508.508 0 0 0 0-.722l-1.149-1.151 8.03-8.019a.505.505 0 0 0 .15-.364Z"/></mask></svg>