<svg xmlns="http://www.w3.org/2000/svg" viewBox="0 0 24 24" width="1em" height="1em" focusable="false"><path fill-rule="evenodd" clip-rule="evenodd" d="M16.488 18H7.502l.013-12h8.987c-.002 2.072-.01 9.9-.014 12Zm-9.502 1H17a.496.496 0 0 0 .486-.505l.015-12.99c-.028-.308-.19-.476-.486-.505H7a.495.495 0 0 0-.486.505L6.5 18.495c.027.308.19.477.486.505Zm4.315-2.5c0 .385.315.7.7.7.385 0 .7-.315.7-.7 0-.385-.315-.7-.7-.7-.385 0-.7.315-.7.7Z"/><mask id="a" style="mask-type:alpha" maskUnits="userSpaceOnUse" x="6" y="5" width="12" height="14"><path fill-rule="evenodd" clip-rule="evenodd" d="M16.488 18H7.502l.013-12h8.987c-.002 2.072-.01 9.9-.014 12Zm-9.502 1H17a.496.496 0 0 0 .486-.505l.015-12.99c-.028-.308-.19-.476-.486-.505H7a.495.495 0 0 0-.486.505L6.5 18.495c.027.308.19.477.486.505Zm4.315-2.5c0 .385.315.7.7.7.385 0 .7-.315.7-.7 0-.385-.315-.7-.7-.7-.385 0-.7.315-.7.7Z"/></mask></svg>