<svg xmlns="http://www.w3.org/2000/svg" viewBox="0 0 24 24" width="1em" height="1em" focusable="false"><path fill-rule="evenodd" clip-rule="evenodd" d="M21.694 14.55a2 2 0 0 1-1.51.64H1.994v-1h18.17a1 1 0 0 0 .74-.26.82.82 0 0 0 0-.69 7.999 7.999 0 0 0-2.59-2.91h-3.6v-1h2.17a9.48 9.48 0 0 0-4.65-1.54H1.994v-1h10.24c4.15 0 9.09 4.19 9.66 6.17a1.69 1.69 0 0 1-.2 1.59ZM6.043 9.33v1h7.13v-1h-7.13Zm12.701 7.88H1.994v-1h16.75v1Z"/><mask id="a" style="mask-type:alpha" maskUnits="userSpaceOnUse" x="1" y="6" width="22" height="12"><path fill-rule="evenodd" clip-rule="evenodd" d="M21.694 14.55a2 2 0 0 1-1.51.64H1.994v-1h18.17a1 1 0 0 0 .74-.26.82.82 0 0 0 0-.69 7.999 7.999 0 0 0-2.59-2.91h-3.6v-1h2.17a9.48 9.48 0 0 0-4.65-1.54H1.994v-1h10.24c4.15 0 9.09 4.19 9.66 6.17a1.69 1.69 0 0 1-.2 1.59ZM6.043 9.33v1h7.13v-1h-7.13Zm12.701 7.88H1.994v-1h16.75v1Z"/></mask></svg>