<svg xmlns="http://www.w3.org/2000/svg" viewBox="0 0 24 24" width="1em" height="1em" focusable="false"><path fill-rule="evenodd" clip-rule="evenodd" d="M7.5 9h-3a.5.5 0 0 1-.5-.5v-6a.5.5 0 0 1 .5-.5h3a.5.5 0 0 1 .5.5v6a.5.5 0 0 1-.5.5ZM5 8h2V3H5v5Zm14.5 14h-3a.5.5 0 0 1-.5-.5v-6a.5.5 0 0 1 .5-.5h3a.5.5 0 0 1 .5.5v6a.5.5 0 0 1-.5.5ZM17 21h2v-5h-2v5Zm-.5-12h3a.5.5 0 0 0 .5-.5v-6a.5.5 0 0 0-.5-.5h-3a.5.5 0 0 0-.5.5v6a.5.5 0 0 0 .5.5ZM19 8h-2V3h2v5ZM7.5 22h-3a.5.5 0 0 1-.5-.5v-6a.5.5 0 0 1 .5-.5h3a.5.5 0 0 1 .5.5v6a.5.5 0 0 1-.5.5ZM5 21h2v-5H5v5ZM9 6h2.5v4.585a1.5 1.5 0 0 0 0 2.83V18H9v1h6v-1h-2.5v-4.585a1.5 1.5 0 0 0 0-2.83V6H15V5H9v1Z"/><mask id="a" style="mask-type:alpha" maskUnits="userSpaceOnUse" x="4" y="2" width="16" height="20"><path fill-rule="evenodd" clip-rule="evenodd" d="M7.5 9h-3a.5.5 0 0 1-.5-.5v-6a.5.5 0 0 1 .5-.5h3a.5.5 0 0 1 .5.5v6a.5.5 0 0 1-.5.5ZM5 8h2V3H5v5Zm14.5 14h-3a.5.5 0 0 1-.5-.5v-6a.5.5 0 0 1 .5-.5h3a.5.5 0 0 1 .5.5v6a.5.5 0 0 1-.5.5ZM17 21h2v-5h-2v5Zm-.5-12h3a.5.5 0 0 0 .5-.5v-6a.5.5 0 0 0-.5-.5h-3a.5.5 0 0 0-.5.5v6a.5.5 0 0 0 .5.5ZM19 8h-2V3h2v5ZM7.5 22h-3a.5.5 0 0 1-.5-.5v-6a.5.5 0 0 1 .5-.5h3a.5.5 0 0 1 .5.5v6a.5.5 0 0 1-.5.5ZM5 21h2v-5H5v5ZM9 6h2.5v4.585a1.5 1.5 0 0 0 0 2.83V18H9v1h6v-1h-2.5v-4.585a1.5 1.5 0 0 0 0-2.83V6H15V5H9v1Z"/></mask></svg>