<svg xmlns="http://www.w3.org/2000/svg" viewBox="0 0 24 24" width="1em" height="1em" focusable="false"><path fill-rule="evenodd" clip-rule="evenodd" d="M20 6.5v12a.5.5 0 0 1-.5.5h-5.79l-.86.85a.47.47 0 0 1-.35.15h-1a.47.47 0 0 1-.35-.15l-.86-.85H4.5a.5.5 0 0 1-.5-.5v-12a.5.5 0 0 1 .5-.5h6a.47.47 0 0 1 .35.15l.86.85h.58l.86-.85A.47.47 0 0 1 13.5 6h6a.5.5 0 0 1 .5.5ZM7 10h4V9H7v1Zm0 2h4v1H7v-1Zm4 4H7v-1h4v1Zm2.71-9H19v11h-5.5a.47.47 0 0 0-.35.15l-.86.85h-.58l-.86-.85a.47.47 0 0 0-.35-.15H5V7h5.29l.86.85a.47.47 0 0 0 .35.15h1a.47.47 0 0 0 .35-.15l.86-.85Zm1.82 3.212a.698.698 0 0 0 .683-.712.698.698 0 0 0-.707-.688c-.39.007-.7.33-.693.722a.702.702 0 0 0 .22.489.692.692 0 0 0 .497.189ZM16 16h-1v-4h1v4Z"/><mask id="a" style="mask-type:alpha" maskUnits="userSpaceOnUse" x="4" y="6" width="16" height="14"><path fill-rule="evenodd" clip-rule="evenodd" d="M20 6.5v12a.5.5 0 0 1-.5.5h-5.79l-.86.85a.47.47 0 0 1-.35.15h-1a.47.47 0 0 1-.35-.15l-.86-.85H4.5a.5.5 0 0 1-.5-.5v-12a.5.5 0 0 1 .5-.5h6a.47.47 0 0 1 .35.15l.86.85h.58l.86-.85A.47.47 0 0 1 13.5 6h6a.5.5 0 0 1 .5.5ZM7 10h4V9H7v1Zm0 2h4v1H7v-1Zm4 4H7v-1h4v1Zm2.71-9H19v11h-5.5a.47.47 0 0 0-.35.15l-.86.85h-.58l-.86-.85a.47.47 0 0 0-.35-.15H5V7h5.29l.86.85a.47.47 0 0 0 .35.15h1a.47.47 0 0 0 .35-.15l.86-.85Zm1.82 3.212a.698.698 0 0 0 .683-.712.698.698 0 0 0-.707-.688c-.39.007-.7.33-.693.722a.702.702 0 0 0 .22.489.692.692 0 0 0 .497.189ZM16 16h-1v-4h1v4Z"/></mask></svg>