<svg xmlns="http://www.w3.org/2000/svg" viewBox="0 0 24 24" width="1em" height="1em" focusable="false"><path fill-rule="evenodd" clip-rule="evenodd" d="M16 7h1.293L16 5.707V7ZM6 19h12V8h-2.5a.5.5 0 0 1-.5-.5V5H6v14Zm12.5 1h-13a.5.5 0 0 1-.5-.5v-15a.5.5 0 0 1 .5-.5h10c.139 0 .265.057.354.147l2.999 2.999c.09.089.147.215.147.354v12a.5.5 0 0 1-.5.5ZM10 10.383v4.234l3.528-2.117L10 10.383ZM9.5 16a.499.499 0 0 1-.5-.5v-6a.501.501 0 0 1 .757-.43l5 3a.499.499 0 0 1 0 .859l-5 3a.493.493 0 0 1-.257.07Z"/><mask id="a" style="mask-type:alpha" maskUnits="userSpaceOnUse" x="5" y="4" width="14" height="16"><path fill-rule="evenodd" clip-rule="evenodd" d="M16 7h1.293L16 5.707V7ZM6 19h12V8h-2.5a.5.5 0 0 1-.5-.5V5H6v14Zm12.5 1h-13a.5.5 0 0 1-.5-.5v-15a.5.5 0 0 1 .5-.5h10c.139 0 .265.057.354.147l2.999 2.999c.09.089.147.215.147.354v12a.5.5 0 0 1-.5.5ZM10 10.383v4.234l3.528-2.117L10 10.383ZM9.5 16a.499.499 0 0 1-.5-.5v-6a.501.501 0 0 1 .757-.43l5 3a.499.499 0 0 1 0 .859l-5 3a.493.493 0 0 1-.257.07Z"/></mask></svg>