<svg xmlns="http://www.w3.org/2000/svg" viewBox="0 0 288 96" width="1em" height="1em" focusable="false"><path fill-rule="evenodd" clip-rule="evenodd" d="M38 48a6 6 0 1 1-12 0 6 6 0 0 1 12 0Zm1 0a7 7 0 1 1-14 0 7 7 0 0 1 14 0Zm-7.5-3.5v4h1v-4h-1Zm.5 7a.8.8 0 1 1 0-1.6.8.8 0 0 1 0 1.6ZM101 48a9 9 0 1 1-18 0 9 9 0 0 1 18 0Zm1 0c0 5.523-4.477 10-10 10s-10-4.477-10-10 4.477-10 10-10 10 4.477 10 10Zm-10.5-5v7h1v-7h-1Zm.5 10a.85.85 0 1 1 0-1.7.85.85 0 0 1 0 1.7ZM172 48c0 6.627-5.373 12-12 12s-12-5.373-12-12 5.373-12 12-12 12 5.373 12 12Zm1 0c0 7.18-5.82 13-13 13s-13-5.82-13-13 5.82-13 13-13 13 5.82 13 13Zm-13.5-7v10h1V41h-1Zm.5 14a.85.85 0 1 1 0-1.7.85.85 0 0 1 0 1.7ZM259 48c0 10.493-8.507 19-19 19s-19-8.507-19-19 8.507-19 19-19 19 8.507 19 19Zm1 0c0 11.046-8.954 20-20 20s-20-8.954-20-20 8.954-20 20-20 20 8.954 20 20Zm-20.5-9v14h1V39h-1Zm.5 18a.85.85 0 1 1 0-1.7.85.85 0 0 1 0 1.7Z"/><rect x=".5" y=".5" width="287" height="95" rx="4.5" stroke-dasharray="10 5"/></svg>